<svg aria-hidden="true" style="position: absolute; width: 0; height: 0; overflow: hidden;" version="1.1" xmlns="http://www.w3.org/2000/svg" xmlns:xlink="http://www.w3.org/1999/xlink">
<defs>
<symbol id="icon-launch_rocket_space_spacecraft_spaceship_icon" viewBox="0 0 32 32">
<path fill="#5aa096" style="fill: var(--color1, #5aa096)" d="M29.376 22.070c-0.359-0.359-0.778-0.62-1.225-0.785v-9.105c0-0.326-0.267-0.593-0.593-0.593s-0.593 0.267-0.593 0.593v8.892c-0.344 0-0.688 0.053-1.019 0.156v-6.158c0-0.326-0.267-0.593-0.593-0.593-0.172 0-0.328 0.075-0.436 0.193v-3.98c0-0.444-0.363-0.808-0.808-0.808-0.022 0-0.045 0.002-0.067 0.003v-2.319c0-0.326-0.267-0.593-0.593-0.593s-0.593 0.267-0.593 0.593v15.053c-0.43 0.313-0.756 0.748-0.938 1.244-0.005-0.046-0.012-0.093-0.021-0.139v-11.7c0-0.444-0.363-0.808-0.808-0.808s-0.808 0.363-0.808 0.808v10.544c-0.040 0.006-0.080 0.012-0.121 0.022-0.344 0.078-0.631 0.272-0.829 0.532-0.003-0.024-0.006-0.048-0.010-0.072-0.258-1.591-1.757-2.672-3.349-2.413-1.135 0.184-2.009 1-2.324 2.030-0.314-0.637-0.97-1.075-1.728-1.075-0.351 0-0.68 0.094-0.963 0.258v-7.298c0-0.571-0.467-1.037-1.037-1.037s-1.037 0.467-1.037 1.037v8.368c-0.099 0.014-0.195 0.036-0.288 0.064-0.136-0.219-0.298-0.427-0.488-0.617-0.059-0.059-0.12-0.115-0.183-0.169v-10.315c0-0.326-0.267-0.593-0.593-0.593s-0.593 0.267-0.593 0.593v9.649c-0.291-0.093-0.591-0.147-0.894-0.16v-6.599c0-0.326-0.267-0.593-0.593-0.593s-0.593 0.267-0.593 0.593v6.757c-0.502 0.16-0.975 0.438-1.373 0.836-1.331 1.331-1.331 3.489 0 4.821s3.49 1.331 4.821 0c0.167-0.167 0.313-0.347 0.438-0.537 0.194 0.066 0.401 0.102 0.618 0.102 0.003 0 0.006-0 0.009-0 0.189 0.198 0.455 0.323 0.749 0.323 0.109 0 0.213-0.017 0.312-0.048 1.292 0.394 3.168 0.641 5.256 0.641 2.331 0 4.398-0.309 5.683-0.785 0.254 0.222 0.586 0.357 0.95 0.357 0.302 0 0.581-0.092 0.813-0.25 0.57 0.384 1.287 0.55 2.014 0.404 0.060-0.012 0.119-0.027 0.177-0.042 1.32 0.847 3.095 0.695 4.25-0.46 1.331-1.331 1.331-3.489-0-4.821z"></path>
<path fill="#2f485e" style="fill: var(--color2, #2f485e)" d="M26.41 27.853c0 0.798-4.512 1.445-10.078 1.445s-10.078-0.647-10.078-1.445c0-0.798 4.512-1.445 10.078-1.445s10.078 0.647 10.078 1.445z"></path>
<path fill="#466c6f" style="fill: var(--color3, #466c6f)" d="M29.376 22.070c-0.359-0.359-0.778-0.62-1.225-0.785v-9.105c0-0.326-0.267-0.593-0.593-0.593s-0.593 0.267-0.593 0.593v8.892c-0.344 0-0.688 0.053-1.019 0.156v-6.158c0-0.326-0.267-0.593-0.593-0.593s-0.593 0.267-0.593 0.593v6.812c-0.070 0.060-0.14 0.122-0.206 0.189-0.013 0.013-0.026 0.027-0.039 0.041-0.156-0.005-0.314 0.003-0.473 0.026v-14.571c0-0.326-0.267-0.593-0.593-0.593s-0.593 0.267-0.593 0.593v15.053c-0.43 0.313-0.756 0.748-0.938 1.244-0.006-0.061-0.015-0.121-0.029-0.183-0.176-0.778-0.95-1.267-1.728-1.091-0.344 0.078-0.631 0.272-0.829 0.532-0.003-0.024-0.006-0.048-0.010-0.072-0.258-1.591-1.757-2.672-3.349-2.413-1.135 0.184-2.009 1-2.324 2.030-0.314-0.637-0.97-1.075-1.728-1.075-0.924 0-1.696 0.651-1.883 1.518-0.263-0.134-0.56-0.211-0.875-0.211-0.198 0-0.388 0.030-0.568 0.085-0.136-0.219-0.298-0.427-0.488-0.617-0.059-0.059-0.12-0.115-0.183-0.169v-10.315c0-0.326-0.267-0.593-0.593-0.593s-0.593 0.267-0.593 0.593v9.649c-0.291-0.093-0.591-0.147-0.894-0.16v-6.599c0-0.326-0.267-0.593-0.593-0.593s-0.593 0.267-0.593 0.593v6.757c-0.502 0.16-0.975 0.438-1.373 0.836-1.331 1.331-1.331 3.489 0 4.821s3.49 1.331 4.821 0c0.167-0.167 0.313-0.347 0.438-0.537 0.194 0.066 0.401 0.102 0.618 0.102 0.093 0 0.185-0.007 0.275-0.020 1.234 0.56 3.482 0.935 6.051 0.935 2.331 0 4.398-0.309 5.683-0.785 0.254 0.222 0.586 0.357 0.95 0.357 0.302 0 0.581-0.092 0.813-0.25 0.57 0.384 1.287 0.55 2.014 0.404 0.060-0.012 0.119-0.027 0.177-0.042 1.32 0.847 3.095 0.695 4.25-0.46 1.331-1.331 1.331-3.489-0-4.821z"></path>
<path fill="#ff7143" style="fill: var(--color4, #ff7143)" d="M17.461 19.16h-2.257l-0.558 6.328h3.374z"></path>
<path fill="#ffd800" style="fill: var(--color5, #ffd800)" d="M15.766 19.16l-0.462 6.328h2.057l-0.462-6.328z"></path>
<path fill="#ddd" style="fill: var(--color6, #ddd)" d="M15.006 19.883h-2.080l0.365-2.541 1.127-1.8h0.588z"></path>
<path fill="#c6c6c6" style="fill: var(--color7, #c6c6c6)" d="M17.658 19.883h2.080l-0.365-2.541-1.127-1.8h-0.588z"></path>
<path fill="#f4f4f4" style="fill: var(--color8, #f4f4f4)" d="M16.335 1.887v-0c-0.001 0-0.002 0-0.003 0s-0.002-0-0.003-0v0c-1.458 0.006-2.639 4.664-2.639 8.455 0 2.263 0.508 6.265 1.266 7.777 0 0 1.279 0 1.373 0 0.003 0 0.005 0 0.006 0 0.094 0 1.373 0 1.373 0 0.758-1.512 1.266-5.514 1.266-7.777 0-3.791-1.181-8.45-2.64-8.455z"></path>
<path fill="#52c9d5" style="fill: var(--color9, #52c9d5)" d="M17.926 10.889c0 0.88-0.714 1.594-1.594 1.594s-1.594-0.714-1.594-1.594c0-0.88 0.714-1.594 1.594-1.594s1.594 0.714 1.594 1.594z"></path>
<path fill="#fff" style="fill: var(--color10, #fff)" d="M17.43 10.889c0 0.606-0.492 1.098-1.098 1.098s-1.098-0.492-1.098-1.098c0-0.606 0.492-1.098 1.098-1.098s1.098 0.492 1.098 1.098z"></path>
<path fill="#52c9d5" style="fill: var(--color9, #52c9d5)" d="M14.998 18.12h2.668v1.040h-2.668v-1.040z"></path>
<path fill="#52c9d5" style="fill: var(--color9, #52c9d5)" d="M16.332 1.887c-0.001 0-0.002-0-0.003-0v0c-1.091 0.004-2.027 2.614-2.429 5.516h4.864c-0.402-2.902-1.338-5.512-2.429-5.516v-0c-0.001 0-0.002 0-0.003 0z"></path>
<path fill="#49bac0" style="fill: var(--color11, #49bac0)" d="M16.347 18.12h1.319v1.040h-1.319v-1.040z"></path>
<path fill="#e0e0e0" style="fill: var(--color12, #e0e0e0)" d="M16.347 1.888v16.232c0.158 0 1.362 0 1.362 0 0.758-1.512 1.266-5.514 1.266-7.777 0-3.78-1.175-8.424-2.628-8.454z"></path>
<path fill="#49bac0" style="fill: var(--color11, #49bac0)" d="M16.347 9.295v3.187c0.874-0.008 1.579-0.718 1.579-1.594s-0.706-1.586-1.579-1.594z"></path>
<path fill="#f4f4f4" style="fill: var(--color8, #f4f4f4)" d="M16.347 9.791v2.195c0.6-0.008 1.084-0.496 1.084-1.097s-0.484-1.089-1.084-1.097z"></path>
<path fill="#49bac0" style="fill: var(--color11, #49bac0)" d="M16.347 7.404h2.418c-0.401-2.892-1.331-5.493-2.418-5.516v5.516z"></path>
<path fill="#466c6f" style="fill: var(--color3, #466c6f)" d="M2.16 28.186c0 0.327-0.265 0.593-0.593 0.593s-0.593-0.265-0.593-0.593c0-0.327 0.265-0.593 0.593-0.593s0.593 0.265 0.593 0.593z"></path>
<path fill="#466c6f" style="fill: var(--color3, #466c6f)" d="M11.080 20.424c0 0.655-0.531 1.186-1.186 1.186s-1.186-0.531-1.186-1.186c0-0.655 0.531-1.186 1.186-1.186s1.186 0.531 1.186 1.186z"></path>
<path fill="#466c6f" style="fill: var(--color3, #466c6f)" d="M23.724 29.149c0 0.327-0.265 0.593-0.593 0.593s-0.593-0.265-0.593-0.593c0-0.327 0.265-0.593 0.593-0.593s0.593 0.265 0.593 0.593z"></path>
<path fill="#5aa096" style="fill: var(--color1, #5aa096)" d="M13.309 24.41c0 0.442-0.359 0.801-0.801 0.801s-0.801-0.359-0.801-0.801c0-0.442 0.359-0.801 0.801-0.801s0.801 0.359 0.801 0.801z"></path>
<path fill="#5aa096" style="fill: var(--color1, #5aa096)" d="M17.113 25.76c0 0.236-0.191 0.427-0.427 0.427s-0.427-0.191-0.427-0.427c0-0.236 0.191-0.427 0.427-0.427s0.427 0.191 0.427 0.427z"></path>
<path fill="#66b2b2" style="fill: var(--color13, #66b2b2)" d="M5.155 25.616c0 0.327-0.265 0.593-0.593 0.593s-0.593-0.265-0.593-0.593c0-0.327 0.265-0.593 0.593-0.593s0.593 0.265 0.593 0.593z"></path>
<path fill="#66b2b2" style="fill: var(--color13, #66b2b2)" d="M29.318 25.577c0 0.327-0.265 0.593-0.593 0.593s-0.593-0.265-0.593-0.593c0-0.327 0.265-0.593 0.593-0.593s0.593 0.265 0.593 0.593z"></path>
<path fill="#5aa096" style="fill: var(--color1, #5aa096)" d="M21.024 25.32c0 0.552-0.448 1-1 1s-1-0.448-1-1c0-0.552 0.448-1 1-1s1 0.448 1 1z"></path>
<path fill="#5aa096" style="fill: var(--color1, #5aa096)" d="M27.874 26.556c-0.155 0-0.304 0.022-0.446 0.062 0.001-0.021 0.002-0.041 0.002-0.062 0-1.187-0.962-2.149-2.149-2.149s-2.149 0.962-2.149 2.149c0 1.187 0.962 2.149 2.149 2.149 0.356 0 0.692-0.087 0.988-0.241 0.132 0.768 0.801 1.352 1.606 1.352 0.9 0 1.63-0.73 1.63-1.63s-0.73-1.63-1.63-1.63z"></path>
<path fill="#5aa096" style="fill: var(--color1, #5aa096)" d="M14.387 28.927c0 0.655-0.531 1.186-1.186 1.186s-1.186-0.531-1.186-1.186c0-0.655 0.531-1.186 1.186-1.186s1.186 0.531 1.186 1.186z"></path>
<path fill="#5aa096" style="fill: var(--color1, #5aa096)" d="M10.271 25.927c-0.463-0.463-1.214-0.463-1.677 0-0.085 0.085-0.154 0.18-0.208 0.281-0.46-0.376-1.072-0.561-1.705-0.459-1.172 0.19-1.967 1.294-1.777 2.465s1.294 1.967 2.466 1.777c1.039-0.169 1.781-1.056 1.804-2.071 0.383 0.085 0.8-0.020 1.098-0.318 0.463-0.463 0.463-1.214 0-1.677z"></path>
<path fill="#ffd326" style="fill: var(--color14, #ffd326)" d="M10.663 7.403l0.325 0.658 0.726 0.105-0.525 0.512 0.124 0.723-0.649-0.341-0.649 0.341 0.124-0.723-0.525-0.512 0.726-0.105z"></path>
<path fill="#ffd326" style="fill: var(--color14, #ffd326)" d="M29.975 15.528l0.325 0.658 0.726 0.105-0.525 0.512 0.124 0.723-0.649-0.341-0.649 0.341 0.124-0.723-0.525-0.512 0.726-0.105z"></path>
<path fill="#ffd326" style="fill: var(--color14, #ffd326)" d="M2.163 17.465l0.325 0.658 0.726 0.105-0.525 0.512 0.124 0.723-0.649-0.341-0.649 0.341 0.124-0.723-0.525-0.512 0.726-0.105z"></path>
</symbol>
<symbol id="icon-business_launch_rocket" viewBox="0 0 32 32">
<path d="M6.182 20.534s-2.166 1.716-2.304 6.431c-0 0.007-0 0.015-0 0.024 0 0.526 0.426 0.952 0.952 0.952 0.004 0 0.007-0 0.011-0h-0.001c4.562-0.085 6.431-2.317 6.431-2.317 0.629-0.661 1.015-1.558 1.015-2.545s-0.387-1.883-1.017-2.546l0.001 0.002c-1.405-1.405-3.488-1.337-5.089 0z"></path>
<path d="M16.252 22.213c0.62 0.81 1.031 1.811 1.136 2.902l0.002 0.023c0.018 0.296 0.029 0.643 0.029 0.992 0 1.403-0.169 2.766-0.489 4.071l0.024-0.117c-0.011 0.048-0.018 0.103-0.018 0.16 0 0.396 0.321 0.718 0.718 0.718 0.123 0 0.239-0.031 0.341-0.086l-0.004 0.002c3.847-2.027 7.023-5.944 4.997-11.054-1.921 1.236-4.205 2.085-6.658 2.382l-0.077 0.008z"></path>
<path d="M6.665 14.412c1.115 0.107 2.117 0.519 2.941 1.15l-0.014-0.010c0.3-2.532 1.15-4.817 2.427-6.801l-0.038 0.063c-5.111-2.029-9.028 1.15-11.057 4.997-0.052 0.097-0.083 0.212-0.083 0.334 0 0.164 0.055 0.314 0.148 0.435l-0.001-0.002c0.132 0.175 0.34 0.287 0.574 0.287 0.055 0 0.109-0.006 0.161-0.018l-0.005 0.001c1.188-0.295 2.553-0.464 3.957-0.464 0.348 0 0.694 0.010 1.038 0.031l-0.047-0.002z"></path>
<path d="M30.209 2.674c-0.088-0.556-0.521-0.989-1.070-1.076l-0.007-0.001c-0.734-0.116-1.58-0.183-2.442-0.183-0.814 0-1.614 0.059-2.397 0.174l0.089-0.011c0.395 3.056 2.79 5.449 5.813 5.839l0.034 0.004c0.104-0.692 0.163-1.492 0.163-2.305 0-0.862-0.066-1.708-0.194-2.533l0.012 0.092z"></path>
<path d="M23.057 1.824c-2.468 0.58-4.606 1.752-6.333 3.359l0.008-0.008c-5.837 5.405-5.816 10.884-5.816 10.884l4.831 4.831s5.48 0.021 10.884-5.816c1.6-1.72 2.772-3.859 3.333-6.234l0.019-0.094c-3.604-0.501-6.423-3.319-6.922-6.88l-0.005-0.043zM20.831 13.791c-1.557 0-2.82-1.263-2.82-2.82s1.263-2.82 2.82-2.82c1.557 0 2.82 1.263 2.82 2.82v0c0 1.557-1.263 2.82-2.82 2.82v0z"></path>
</symbol>
<symbol id="icon-html" viewBox="0 0 32 32">
<path d="M6.667 4c-0.368 0-0.667-0.297-0.667-0.667v-2.667c0-0.368 0.299-0.667 0.667-0.667s0.667 0.299 0.667 0.667v2.667c0 0.369-0.299 0.667-0.667 0.667z"></path>
<path d="M9.333 2.667h-2.667c-0.368 0-0.667-0.297-0.667-0.667s0.299-0.667 0.667-0.667h2.667c0.368 0 0.667 0.299 0.667 0.667s-0.299 0.667-0.667 0.667z"></path>
<path d="M9.333 4c-0.368 0-0.667-0.297-0.667-0.667v-2.667c0-0.368 0.299-0.667 0.667-0.667s0.667 0.299 0.667 0.667v2.667c0 0.369-0.299 0.667-0.667 0.667z"></path>
<path d="M14.667 1.333h-2.667c-0.368 0-0.667-0.297-0.667-0.667s0.299-0.667 0.667-0.667h2.667c0.368 0 0.667 0.299 0.667 0.667s-0.299 0.667-0.667 0.667z"></path>
<path d="M13.333 4c-0.368 0-0.667-0.297-0.667-0.667v-2.667c0-0.368 0.299-0.667 0.667-0.667s0.667 0.299 0.667 0.667v2.667c0 0.369-0.299 0.667-0.667 0.667z"></path>
<path d="M21.333 4c-0.368 0-0.667-0.299-0.667-0.667v-0.667l-0.8 1.067c-0.251 0.336-0.815 0.336-1.067 0l-0.8-1.067v0.667c0 0.369-0.299 0.667-0.667 0.667s-0.667-0.299-0.667-0.667v-2.667c0-0.287 0.184-0.541 0.456-0.632 0.272-0.092 0.572 0.003 0.744 0.232l1.467 1.955 1.467-1.955c0.172-0.229 0.471-0.324 0.744-0.232 0.272 0.091 0.456 0.345 0.456 0.632v2.667c0 0.369-0.299 0.667-0.667 0.667z"></path>
<path d="M26 4h-2c-0.368 0-0.667-0.299-0.667-0.667v-2.667c0-0.368 0.299-0.667 0.667-0.667s0.667 0.299 0.667 0.667v2h1.333c0.368 0 0.667 0.299 0.667 0.667s-0.299 0.667-0.667 0.667z"></path>
<path d="M16.667 32c-0.061 0-0.123-0.008-0.183-0.025l-9.333-2.667c-0.264-0.076-0.455-0.305-0.481-0.579l-2-21.333c-0.017-0.187 0.045-0.372 0.171-0.511 0.127-0.14 0.305-0.219 0.493-0.219h21.333c0.188 0 0.367 0.079 0.493 0.219 0.127 0.139 0.188 0.324 0.171 0.511l-2 21.333c-0.025 0.263-0.203 0.487-0.453 0.569l-8 2.667c-0.068 0.023-0.14 0.035-0.211 0.035zM7.955 28.151l8.697 2.484 7.392-2.464 1.891-20.171h-19.869l1.889 20.151z"></path>
<path d="M16.667 26.667c-0.061 0-0.123-0.008-0.183-0.025l-4.667-1.333c-0.229-0.065-0.407-0.249-0.464-0.48l-0.667-2.667c-0.089-0.357 0.128-0.719 0.485-0.808 0.355-0.089 0.719 0.127 0.808 0.485l0.573 2.293 4.099 1.171 3.395-1.132 0.549-5.504h-9.929c-0.336 0-0.62-0.251-0.661-0.584l-0.667-5.333c-0.024-0.189 0.035-0.38 0.161-0.524 0.127-0.143 0.308-0.225 0.5-0.225h12.667c0.368 0 0.667 0.299 0.667 0.667s-0.299 0.667-0.667 0.667h-11.912l0.5 4h10.079c0.188 0 0.368 0.080 0.495 0.22 0.127 0.139 0.188 0.327 0.169 0.513l-0.667 6.667c-0.027 0.261-0.203 0.483-0.452 0.565l-4 1.333c-0.069 0.023-0.141 0.035-0.212 0.035z"></path>
</symbol>
<symbol id="icon-business" viewBox="0 0 32 32">
<path d="M17.888 12.156h-7.086c-0.194 0-0.352-0.181-0.352-0.375s0.158-0.375 0.352-0.375h6.663c-0.161-0.25-0.302-0.688-0.421-0.938h-6.243c-0.194 0-0.352-0.18-0.352-0.375 0-0.194 0.158-0.375 0.352-0.375h6.026c-0.155-0.563-0.239-1.225-0.239-1.877 0-1.191 0.264-2.31 0.753-3.31h-13.134c-0.579 0-0.989 0.489-0.989 1.069v20.181h14.492c0.359 0 0.703 0.111 0.972 0.345 0.033 0.027 0.083 0.065 0.154 0.145l0.028 0.014c0.22 0.264 0.354 0.596 0.354 0.944v1.556c0 0.911 0.563 2.212 1.313 2.212v-0.018c-1.188-0.018-2.125-0.992-2.125-2.194v-1.556c0-0.155-0.082-0.298-0.173-0.408 0 0-0.061-0.051-0.081-0.066-0.113-0.102-0.277-0.162-0.441-0.162h-16.109c-0.354 0-0.633 0.281-0.633 0.636v1.512c0 1.238 0.995 2.228 2.233 2.228h17.313c0.563 0 1.015-0.169 1.388-0.462 0.513-0.401 0.879-1.020 0.879-1.723v-13.423c-2.063-0.394-3.781-1.518-4.894-3.206zM6.815 9.364c0.386 0 0.74 0.128 1.028 0.342l-1.264 1.264-0.228-0.27c-0.138-0.163-0.382-0.184-0.545-0.046s-0.183 0.382-0.046 0.545l0.5 0.591c0.070 0.083 0.171 0.132 0.279 0.137 0.005 0 0.011 0 0.016 0 0.102 0 0.201-0.040 0.273-0.113l1.518-1.518c0.123 0.237 0.194 0.506 0.194 0.792 0 0.952-0.772 1.725-1.725 1.725s-1.724-0.772-1.724-1.725c0-0.953 0.772-1.725 1.724-1.725zM6.815 14.852c0.386 0 0.74 0.128 1.028 0.342l-1.264 1.264-0.228-0.27c-0.138-0.163-0.382-0.183-0.545-0.046s-0.183 0.382-0.046 0.545l0.5 0.591c0.070 0.082 0.171 0.132 0.279 0.137 0.005 0 0.011 0 0.016 0 0.102 0 0.201-0.041 0.273-0.113l1.518-1.517c0.123 0.237 0.194 0.506 0.194 0.792 0 0.953-0.772 1.725-1.725 1.725s-1.724-0.772-1.724-1.725 0.772-1.725 1.724-1.725zM6.815 23.789c-0.952 0-1.724-0.772-1.724-1.724s0.772-1.725 1.724-1.725c0.386 0 0.74 0.128 1.028 0.342l-1.264 1.264-0.228-0.27c-0.138-0.163-0.382-0.183-0.545-0.046s-0.183 0.382-0.046 0.545l0.5 0.591c0.070 0.083 0.171 0.132 0.279 0.137 0.005 0 0.011 0 0.016 0 0.102 0 0.201-0.041 0.273-0.113l1.518-1.517c0.123 0.237 0.194 0.506 0.194 0.792 0 0.952-0.772 1.724-1.725 1.724zM19.527 23.094h-8.725c-0.194 0-0.352-0.15-0.352-0.344s0.157-0.344 0.352-0.344h8.725c0.194 0 0.352 0.15 0.352 0.344s-0.157 0.344-0.352 0.344zM19.527 21.406h-8.725c-0.194 0-0.352-0.15-0.352-0.344s0.157-0.344 0.352-0.344h8.725c0.194 0 0.352 0.15 0.352 0.344s-0.157 0.344-0.352 0.344zM19.527 17.594h-8.725c-0.194 0-0.352-0.15-0.352-0.344s0.157-0.344 0.352-0.344h8.725c0.194 0 0.352 0.15 0.352 0.344s-0.157 0.344-0.352 0.344zM19.879 15.563c0 0.194-0.157 0.344-0.352 0.344h-8.725c-0.194 0-0.352-0.15-0.352-0.344s0.157-0.344 0.352-0.344h8.725c0.194 0 0.352 0.15 0.352 0.344z"></path>
<path d="M24.204 1.022c-3.784 0-6.853 3.068-6.853 6.854 0 3.784 3.069 6.853 6.853 6.853 3.785 0 6.853-3.068 6.853-6.853-0-3.786-3.067-6.854-6.853-6.854zM24.594 8.799c0 0.006-0.001 0.013-0.003 0.018-0.006 0.143-0.092 0.273-0.223 0.333-0.052 0.024-0.109 0.035-0.163 0.035-0.084 0-0.169-0.028-0.238-0.083-0.004-0.003-0.008-0.007-0.013-0.010l-2.185-1.858c-0.163-0.138-0.183-0.382-0.044-0.544 0.138-0.163 0.333-0.183 0.495-0.045l1.499 1.316v-4.032c0-0.214 0.224-0.387 0.438-0.387s0.438 0.173 0.438 0.387v4.868z"></path>
</symbol>
<symbol id="icon-code" viewBox="0 0 32 32">
<path fill="#3d3d63" style="fill: var(--color15, #3d3d63)" d="M5.509 8.395c0 0.295-0.239 0.533-0.533 0.533s-0.533-0.239-0.533-0.533c0-0.295 0.239-0.533 0.533-0.533s0.533 0.239 0.533 0.533z"></path>
<path fill="#3d3d63" style="fill: var(--color15, #3d3d63)" d="M9.067 8.395c0 0.295-0.239 0.533-0.533 0.533s-0.533-0.239-0.533-0.533c0-0.295 0.239-0.533 0.533-0.533s0.533 0.239 0.533 0.533z"></path>
<path fill="#3d3d63" style="fill: var(--color15, #3d3d63)" d="M7.291 8.395c0 0.295-0.239 0.533-0.533 0.533s-0.533-0.239-0.533-0.533c0-0.295 0.239-0.533 0.533-0.533s0.533 0.239 0.533 0.533z"></path>
<path fill="#3d3d63" style="fill: var(--color15, #3d3d63)" d="M10.667 16.133l1.6-1.6c0.097-0.097 0.157-0.231 0.157-0.379 0-0.296-0.24-0.536-0.536-0.536-0.148 0-0.282 0.060-0.379 0.157v0l-1.984 1.989c-0.096 0.096-0.155 0.229-0.155 0.376s0.059 0.28 0.155 0.376l-0-0 1.984 1.989c0.097 0.097 0.231 0.158 0.379 0.158s0.282-0.060 0.379-0.158l0-0c0.096-0.096 0.155-0.229 0.155-0.376s-0.059-0.28-0.155-0.376l0 0z"></path>
<path fill="#3d3d63" style="fill: var(--color15, #3d3d63)" d="M18.304 18.496c0.096 0.096 0.229 0.155 0.376 0.155s0.28-0.059 0.376-0.155l-0 0 1.989-1.963c0.096-0.096 0.155-0.229 0.155-0.376s-0.059-0.28-0.155-0.376l-1.989-1.989c-0.096-0.096-0.229-0.155-0.376-0.155-0.295 0-0.534 0.239-0.534 0.534 0 0.148 0.060 0.282 0.158 0.379l1.6 1.6-1.6 1.6c-0.094 0.096-0.152 0.228-0.152 0.373s0.058 0.277 0.153 0.373l-0-0z"></path>
<path fill="#3d3d63" style="fill: var(--color15, #3d3d63)" d="M16.533 13.947c-0.077-0.045-0.169-0.072-0.267-0.072-0.197 0-0.37 0.107-0.462 0.267l-0.001 0.003-1.968 3.456c-0.052 0.081-0.083 0.18-0.083 0.286 0 0.295 0.239 0.533 0.533 0.533 0.204 0 0.382-0.115 0.471-0.283l0.001-0.003 1.989-3.44c0.047-0.078 0.075-0.172 0.075-0.273 0-0.205-0.116-0.383-0.285-0.472l-0.003-0.001z"></path>
<path fill="#3d3d63" style="fill: var(--color15, #3d3d63)" d="M29.792 21.333c-0.066-0.001-0.122-0.042-0.144-0.1l-0-0.001c-0.228-0.591-0.528-1.1-0.898-1.551l0.008 0.010c-0.017-0.025-0.027-0.055-0.027-0.088s0.010-0.063 0.028-0.088l-0 0c0.103-0.176 0.164-0.387 0.164-0.613 0-0.451-0.244-0.845-0.606-1.059l-0.006-0.003-0.4-0.24v-9.739c0-0.884-0.716-1.6-1.6-1.6v0h-22.043c-0.884 0-1.6 0.716-1.6 1.6v0 13.515c0.003 0.685 0.558 1.24 1.242 1.243h7.291l-0.533 1.973h-0.709c-1.086 0.001-1.996 0.75-2.242 1.76l-0.003 0.016h-1.312c-0.295 0-0.533 0.239-0.533 0.533s0.239 0.533 0.533 0.533v0h13.584c-0.002 0.024-0.003 0.052-0.003 0.080 0 0.106 0.015 0.209 0.042 0.307l-0.002-0.008c0.084 0.322 0.29 0.586 0.565 0.744l0.006 0.003 1.125 0.651c0.175 0.102 0.386 0.163 0.611 0.163 0.453 0 0.848-0.245 1.061-0.61l0.003-0.006c0.030-0.046 0.081-0.077 0.14-0.077 0.009 0 0.018 0.001 0.027 0.002l-0.001-0c0.266 0.048 0.573 0.076 0.885 0.076s0.619-0.028 0.917-0.081l-0.031 0.005c0.008-0.001 0.017-0.002 0.026-0.002 0.060 0 0.112 0.033 0.139 0.081l0 0.001c0.217 0.366 0.61 0.608 1.059 0.608 0.003 0 0.005 0 0.008-0h-0c0.003 0 0.008 0 0.012 0 0.221 0 0.429-0.059 0.607-0.163l-0.006 0.003 1.125-0.651c0.279-0.163 0.484-0.426 0.569-0.738l0.002-0.009c0.027-0.095 0.043-0.205 0.043-0.318 0-0.225-0.061-0.435-0.169-0.615l0.003 0.006c-0.018-0.025-0.028-0.057-0.028-0.091s0.011-0.065 0.029-0.091l-0 0.001c0.361-0.44 0.662-0.948 0.878-1.498l0.013-0.038c0.021-0.059 0.076-0.101 0.141-0.101 0.001 0 0.002 0 0.003 0h-0c0.676-0.003 1.224-0.55 1.227-1.226v-1.302c-0.012-0.665-0.551-1.199-1.215-1.205h-0.001zM3.733 7.861c0-0.295 0.239-0.533 0.533-0.533v0h22.043c0.295 0 0.533 0.239 0.533 0.533v0 1.6h-23.109zM3.909 21.552c-0.097 0-0.176-0.079-0.176-0.176v-10.848h23.109v6.539c-0.094-0.026-0.202-0.041-0.314-0.041-0.435 0-0.816 0.227-1.033 0.569l-0.003 0.005c-0.028 0.044-0.076 0.072-0.131 0.072-0.010 0-0.020-0.001-0.030-0.003l0.001 0c-0.266-0.046-0.573-0.072-0.885-0.072s-0.619 0.026-0.918 0.076l0.032-0.005c-0.010 0.002-0.021 0.003-0.032 0.003-0.054 0-0.102-0.029-0.128-0.072l-0-0.001c-0.215-0.37-0.609-0.614-1.060-0.614-0.227 0-0.439 0.062-0.621 0.169l0.006-0.003-1.125 0.651c-0.28 0.16-0.486 0.421-0.569 0.733l-0.002 0.008c-0.027 0.097-0.043 0.209-0.043 0.324 0 0.224 0.060 0.434 0.164 0.615l-0.003-0.006c0.019 0.024 0.030 0.055 0.030 0.088s-0.011 0.064-0.030 0.088l0-0c-0.362 0.441-0.663 0.951-0.878 1.503l-0.013 0.038c-0.022 0.059-0.078 0.101-0.144 0.101h-0c-0.273 0-0.525 0.090-0.729 0.242l0.003-0.002zM18.133 24.592h-6.4l0.533-1.973h5.6v1.221c0.004 0.286 0.104 0.547 0.269 0.755l-0.002-0.003zM9.963 25.659h9.493c0.137 0.275 0.276 0.508 0.429 0.729l-0.013-0.020h-11.035c0.204-0.422 0.628-0.708 1.12-0.709h0zM29.952 23.84c0 0.088-0.072 0.16-0.16 0.16v0c-0.52 0.001-0.964 0.325-1.144 0.781l-0.003 0.008c-0.183 0.476-0.424 0.887-0.721 1.251l0.006-0.008c-0.171 0.21-0.274 0.48-0.274 0.775 0 0.225 0.060 0.436 0.166 0.617l-0.003-0.006c0.008 0.017 0.013 0.037 0.013 0.059s-0.005 0.041-0.013 0.059l0-0.001c-0.010 0.044-0.037 0.080-0.074 0.101l-0.001 0-1.109 0.629c-0.022 0.013-0.049 0.020-0.078 0.020-0.061 0-0.113-0.034-0.14-0.083l-0-0.001c-0.218-0.367-0.612-0.609-1.063-0.609-0.071 0-0.141 0.006-0.209 0.018l0.007-0.001c-0.213 0.038-0.459 0.060-0.709 0.060s-0.496-0.022-0.735-0.064l0.025 0.004c-0.060-0.010-0.128-0.016-0.199-0.016-0.453 0-0.848 0.244-1.062 0.608l-0.003 0.006c-0.030 0.047-0.081 0.078-0.141 0.078-0.029 0-0.055-0.007-0.079-0.020l0.001 0-1.125-0.651c-0.038-0.022-0.065-0.058-0.074-0.1l-0-0.001c-0.008-0.017-0.013-0.037-0.013-0.059s0.005-0.041 0.013-0.059l-0 0.001c0.101-0.176 0.16-0.386 0.16-0.61 0-0.295-0.103-0.566-0.274-0.779l0.002 0.002c-0.293-0.355-0.536-0.766-0.71-1.212l-0.010-0.030c-0.183-0.452-0.617-0.766-1.125-0.768h-0c-0.088 0-0.16-0.072-0.16-0.16v0-1.301c-0-0.002-0-0.004-0-0.005 0-0.085 0.069-0.155 0.155-0.155 0.002 0 0.004 0 0.006 0h-0c0.518-0.002 0.961-0.325 1.138-0.781l0.003-0.008c0.182-0.477 0.425-0.888 0.726-1.25l-0.006 0.007c0.17-0.211 0.272-0.481 0.272-0.776 0-0.224-0.059-0.435-0.163-0.616l0.003 0.006c-0.008-0.018-0.013-0.039-0.013-0.061s0.005-0.043 0.014-0.062l-0 0.001c0.009-0.043 0.037-0.077 0.074-0.096l0.001-0 1.125-0.651c0.012-0.003 0.026-0.005 0.040-0.005s0.028 0.002 0.041 0.006l-0.001-0c0.056 0.001 0.105 0.030 0.133 0.074l0 0.001c0.219 0.369 0.615 0.613 1.068 0.613 0.069 0 0.137-0.006 0.203-0.017l-0.007 0.001c0.213-0.038 0.459-0.060 0.709-0.060s0.496 0.022 0.735 0.064l-0.025-0.004c0.050 0.007 0.108 0.011 0.166 0.011 0.465 0 0.871-0.256 1.084-0.634l0.003-0.006c0.027-0.046 0.077-0.076 0.133-0.076 0.030 0 0.057 0.008 0.081 0.023l-0.001-0 1.125 0.651c0.038 0.019 0.066 0.053 0.075 0.095l0 0.001c0.008 0.018 0.013 0.039 0.013 0.061s-0.005 0.043-0.014 0.062l0-0.001c-0.102 0.175-0.162 0.385-0.162 0.609 0 0.294 0.103 0.563 0.276 0.775l-0.002-0.002c0.29 0.357 0.532 0.77 0.704 1.217l0.011 0.031c0.173 0.474 0.614 0.808 1.134 0.821l0.002 0c0.002-0 0.004-0 0.005-0 0.085 0 0.155 0.069 0.155 0.155 0 0.002-0 0.004-0 0.006v-0z"></path>
<path fill="#3d3d63" style="fill: var(--color15, #3d3d63)" d="M24.443 20.768c-1.337 0-2.421 1.084-2.421 2.421s1.084 2.421 2.421 2.421c1.337 0 2.421-1.084 2.421-2.421v0c0-1.337-1.084-2.421-2.421-2.421v0zM24.443 24.544c-0.748 0-1.355-0.607-1.355-1.355s0.607-1.355 1.355-1.355c0.748 0 1.355 0.607 1.355 1.355v0c-0.006 0.744-0.61 1.344-1.355 1.344 0 0-0 0-0 0v0z"></path>
</symbol>
<symbol id="icon-programming" viewBox="0 0 32 32">
<path d="M31.125 4.224c-0.363-0.276-0.823-0.442-1.322-0.442-0.215 0-0.422 0.031-0.619 0.088l0.016-0.004c-3.029 0.865-7.14 2.848-12.495-0.444-2.054-1.281-4.548-2.041-7.219-2.041-1.457 0-2.861 0.226-4.18 0.645l0.098-0.027-1.404 0.509v-0.509c0-1.105-0.895-2-2-2s-2 0.895-2 2v0 28c0 1.105 0.895 2 2 2s2-0.895 2-2v0-5.333c10.549-3.843 11.012 2.667 19.227 2.667 2.299 0 2.628-0.392 7.177-1.692 0.928-0.273 1.594-1.117 1.596-2.116v-17.546c-0.002-0.715-0.342-1.349-0.869-1.752l-0.005-0.004zM26.040 14.708l-4 4c-0.182 0.188-0.437 0.305-0.719 0.305-0.552 0-1-0.448-1-1 0-0.282 0.117-0.538 0.305-0.719l3.292-3.294-3.292-3.292c-0.189-0.182-0.306-0.437-0.306-0.72 0-0.552 0.448-1 1-1 0.282 0 0.537 0.117 0.719 0.305l0 0 4 4c0.181 0.181 0.293 0.431 0.293 0.707s-0.112 0.526-0.293 0.707v0zM18.949 10.317l-2.667 8c-0.146 0.384-0.511 0.652-0.939 0.652-0.553 0-1.001-0.448-1.001-1.001 0-0.101 0.015-0.199 0.043-0.291l-0.002 0.007 2.667-8c0.127-0.418 0.508-0.717 0.96-0.717 0.553 0 1.001 0.448 1.001 1.001 0 0.125-0.023 0.245-0.065 0.356l0.002-0.007zM12.707 17.293c0.174 0.18 0.281 0.425 0.281 0.695 0 0.552-0.448 1-1 1-0.27 0-0.515-0.107-0.695-0.281l-4-4c-0.181-0.181-0.293-0.431-0.293-0.707s0.112-0.526 0.293-0.707l4-4c0.18-0.174 0.425-0.28 0.694-0.28 0.552 0 1 0.448 1 1 0 0.27-0.107 0.515-0.281 0.695l0-0-3.293 3.292z"></path>
</symbol>
<symbol id="icon-arrow-up" viewBox="0 0 32 32">
<path d="M27.414 12.586l-10-10c-0.781-0.781-2.047-0.781-2.828 0l-10 10c-0.781 0.781-0.781 2.047 0 2.828s2.047 0.781 2.828 0l6.586-6.586v19.172c0 1.105 0.895 2 2 2s2-0.895 2-2v-19.172l6.586 6.586c0.39 0.39 0.902 0.586 1.414 0.586s1.024-0.195 1.414-0.586c0.781-0.781 0.781-2.047 0-2.828z"></path>
</symbol>
<symbol id="icon-facebook" viewBox="0 0 32 32">
<path d="M14.343 4.343c1.5-1.5 3.535-2.343 5.657-2.343h4c0.736 0 1.333 0.597 1.333 1.333v5.333c0 0.736-0.597 1.333-1.333 1.333h-4v2.667h4c0.411 0 0.798 0.189 1.051 0.513s0.342 0.746 0.243 1.144l-1.333 5.333c-0.148 0.594-0.682 1.010-1.293 1.010h-2.667v9.333c0 0.736-0.597 1.333-1.333 1.333h-5.333c-0.736 0-1.333-0.597-1.333-1.333v-9.333h-2.667c-0.736 0-1.333-0.597-1.333-1.333v-5.333c0-0.736 0.597-1.333 1.333-1.333h2.667v-2.667c0-2.122 0.843-4.157 2.343-5.657zM20 4.667c-1.415 0-2.771 0.562-3.771 1.562s-1.562 2.357-1.562 3.771v4c0 0.736-0.597 1.333-1.333 1.333h-2.667v2.667h2.667c0.736 0 1.333 0.597 1.333 1.333v9.333h2.667v-9.333c0-0.736 0.597-1.333 1.333-1.333h2.959l0.667-2.667h-3.626c-0.736 0-1.333-0.597-1.333-1.333v-4c0-0.707 0.281-1.386 0.781-1.886s1.178-0.781 1.886-0.781h2.667v-2.667h-2.667z"></path>
</symbol>
<symbol id="icon-instagram" viewBox="0 0 32 32">
<path d="M16 2.881c4.275 0 4.781 0.019 6.462 0.094 1.563 0.069 2.406 0.331 2.969 0.55 0.744 0.288 1.281 0.638 1.837 1.194 0.563 0.563 0.906 1.094 1.2 1.838 0.219 0.563 0.481 1.412 0.55 2.969 0.075 1.688 0.094 2.194 0.094 6.463s-0.019 4.781-0.094 6.463c-0.069 1.563-0.331 2.406-0.55 2.969-0.288 0.744-0.637 1.281-1.194 1.837-0.563 0.563-1.094 0.906-1.837 1.2-0.563 0.219-1.413 0.481-2.969 0.55-1.688 0.075-2.194 0.094-6.463 0.094s-4.781-0.019-6.463-0.094c-1.563-0.069-2.406-0.331-2.969-0.55-0.744-0.288-1.281-0.637-1.838-1.194-0.563-0.563-0.906-1.094-1.2-1.837-0.219-0.563-0.481-1.413-0.55-2.969-0.075-1.688-0.094-2.194-0.094-6.463s0.019-4.781 0.094-6.463c0.069-1.563 0.331-2.406 0.55-2.969 0.288-0.744 0.638-1.281 1.194-1.838 0.563-0.563 1.094-0.906 1.838-1.2 0.563-0.219 1.412-0.481 2.969-0.55 1.681-0.075 2.188-0.094 6.463-0.094zM16 0c-4.344 0-4.887 0.019-6.594 0.094-1.7 0.075-2.869 0.35-3.881 0.744-1.056 0.412-1.95 0.956-2.837 1.85-0.894 0.888-1.438 1.781-1.85 2.831-0.394 1.019-0.669 2.181-0.744 3.881-0.075 1.713-0.094 2.256-0.094 6.6s0.019 4.887 0.094 6.594c0.075 1.7 0.35 2.869 0.744 3.881 0.413 1.056 0.956 1.95 1.85 2.837 0.887 0.887 1.781 1.438 2.831 1.844 1.019 0.394 2.181 0.669 3.881 0.744 1.706 0.075 2.25 0.094 6.594 0.094s4.888-0.019 6.594-0.094c1.7-0.075 2.869-0.35 3.881-0.744 1.050-0.406 1.944-0.956 2.831-1.844s1.438-1.781 1.844-2.831c0.394-1.019 0.669-2.181 0.744-3.881 0.075-1.706 0.094-2.25 0.094-6.594s-0.019-4.887-0.094-6.594c-0.075-1.7-0.35-2.869-0.744-3.881-0.394-1.063-0.938-1.956-1.831-2.844-0.887-0.887-1.781-1.438-2.831-1.844-1.019-0.394-2.181-0.669-3.881-0.744-1.712-0.081-2.256-0.1-6.6-0.1v0zM16 7.781c-4.537 0-8.219 3.681-8.219 8.219s3.681 8.219 8.219 8.219 8.219-3.681 8.219-8.219c0-4.537-3.681-8.219-8.219-8.219zM16 21.331c-2.944 0-5.331-2.387-5.331-5.331s2.387-5.331 5.331-5.331c2.944 0 5.331 2.387 5.331 5.331s-2.387 5.331-5.331 5.331zM26.462 7.456c0 1.060-0.859 1.919-1.919 1.919s-1.919-0.859-1.919-1.919c0-1.060 0.859-1.919 1.919-1.919s1.919 0.859 1.919 1.919z"></path>
</symbol>
<symbol id="icon-linkedin" viewBox="0 0 32 32">
<path d="M26.523 5.125c0.195 0 0.352 0.158 0.352 0.353v21.047c0 0.195-0.158 0.352-0.352 0.352v0h-21.045c-0.195 0-0.353-0.158-0.353-0.352v0-21.047c0-0.195 0.158-0.353 0.353-0.353v0h21.047zM26.525 3.5h-21.047c-1.092 0-1.978 0.885-1.978 1.978v0 21.047c0.001 1.091 0.886 1.975 1.978 1.975h21.047c1.092 0 1.977-0.885 1.977-1.977v0-21.045c0-1.092-0.885-1.978-1.977-1.978-0.001 0-0.002 0-0.003 0v0z"></path>
<path d="M9.318 12.6h2.932v10.432h-2.933v-10.432z"></path>
<path d="M19.308 12.6c-2.512 0-2.558 1.453-2.558 1.553v-1.553h-3v10.432h3v-5.955c0-0.465 0.137-1.465 1.558-1.465s1.407 1.433 1.407 1.433v6h2.968v-6.5c0-3.082-1.683-3.945-3.375-3.945z"></path>
<path d="M12.248 10.432c0 0.809-0.656 1.465-1.465 1.465s-1.465-0.656-1.465-1.465c0-0.809 0.656-1.465 1.465-1.465s1.465 0.656 1.465 1.465z"></path>
</symbol>
<symbol id="icon-mail" viewBox="0 0 32 32">
<path d="M5.333 7.333c-0.73 0-1.333 0.603-1.333 1.333v16c0 0.73 0.603 1.333 1.333 1.333h21.333c0.73 0 1.333-0.603 1.333-1.333v-16c0-0.73-0.603-1.333-1.333-1.333h-21.333zM1.333 8.667c0-2.203 1.797-4 4-4h21.333c2.203 0 4 1.797 4 4v16c0 2.203-1.797 4-4 4h-21.333c-2.203 0-4-1.797-4-4v-16zM1.574 7.902c0.422-0.603 1.254-0.75 1.857-0.328l12.569 8.798 12.569-8.798c0.603-0.422 1.435-0.276 1.857 0.328s0.276 1.435-0.328 1.857l-13.333 9.333c-0.459 0.321-1.070 0.321-1.529 0l-13.333-9.333c-0.603-0.422-0.75-1.254-0.328-1.857z"></path>
</symbol>
<symbol id="icon-map-pin" viewBox="0 0 32 32">
<path d="M16 3.333c-2.829 0-5.542 1.124-7.542 3.124s-3.124 4.713-3.124 7.542c0 4.131 2.688 8.139 5.635 11.25 1.446 1.527 2.897 2.776 3.988 3.645 0.406 0.323 0.76 0.593 1.044 0.802 0.284-0.21 0.639-0.479 1.044-0.802 1.091-0.868 2.541-2.118 3.988-3.645 2.947-3.111 5.635-7.119 5.635-11.25 0-2.829-1.124-5.542-3.124-7.542s-4.714-3.124-7.543-3.124zM16 31.333c-0.74 1.109-0.74 1.109-0.74 1.109l-0.004-0.003-0.009-0.006-0.031-0.021c-0.026-0.018-0.063-0.043-0.11-0.076-0.095-0.066-0.231-0.161-0.402-0.285-0.343-0.248-0.829-0.609-1.409-1.072-1.159-0.923-2.709-2.257-4.262-3.897-3.053-3.223-6.365-7.881-6.365-13.084 0-3.536 1.405-6.928 3.905-9.428s5.892-3.905 9.428-3.905c3.536 0 6.928 1.405 9.428 3.905s3.905 5.892 3.905 9.428c0 5.203-3.312 9.861-6.365 13.084-1.554 1.64-3.103 2.974-4.262 3.897-0.581 0.462-1.066 0.824-1.409 1.072-0.172 0.124-0.308 0.219-0.402 0.285-0.047 0.033-0.084 0.058-0.11 0.076l-0.031 0.021-0.012 0.008c0 0-0.002 0.001-0.741-1.108zM16 31.333l0.74 1.109c-0.448 0.299-1.032 0.298-1.48-0.001l0.74-1.109zM22.667 14c0-3.682-2.985-6.667-6.667-6.667s-6.667 2.985-6.667 6.667c0 3.682 2.985 6.667 6.667 6.667s6.667-2.985 6.667-6.667zM20 14c0 2.209-1.791 4-4 4s-4-1.791-4-4c0-2.209 1.791-4 4-4s4 1.791 4 4z"></path>
</symbol>
<symbol id="icon-menu" viewBox="0 0 32 32">
<path d="M4 18h24c0.736 0 1.333-0.597 1.333-1.333s-0.597-1.333-1.333-1.333h-24c-0.736 0-1.333 0.597-1.333 1.333s0.597 1.333 1.333 1.333zM4 10h24c0.736 0 1.333-0.597 1.333-1.333s-0.597-1.333-1.333-1.333h-24c-0.736 0-1.333 0.597-1.333 1.333s0.597 1.333 1.333 1.333zM4 26h24c0.736 0 1.333-0.597 1.333-1.333s-0.597-1.333-1.333-1.333h-24c-0.736 0-1.333 0.597-1.333 1.333s0.597 1.333 1.333 1.333z"></path>
</symbol>
<symbol id="icon-P1" viewBox="0 0 32 32">
<path d="M16.64 5.267h-10.413l0.499-2.803h3.45c0-0.704 0.57-1.261 1.261-1.261 0.698 0 1.261 0.563 1.261 1.261h3.45l0.493 2.803z"></path>
<path d="M3.795 9.325h3.802v3.802h-3.802v-3.802z"></path>
<path d="M3.795 15.904h3.802v3.802h-3.802v-3.802z"></path>
<path d="M3.795 22.477h3.802v3.802h-3.802v-3.802z"></path>
<path d="M24.39 6.643v16.538l2.010 4.026 2.010-4.026v-16.538c0-1.107-0.902-2.010-2.010-2.010v0c-1.114 0-2.010 0.902-2.010 2.010z"></path>
<path d="M24.39 23.053v0.128l2.010 4.026 2.010-4.026v-0.128z"></path>
<path d="M3.322 26.278c0 0.262 0.218 0.48 0.48 0.48h3.802c0.262 0 0.48-0.218 0.48-0.48v-3.802c0-0.262-0.218-0.48-0.48-0.48h-3.802c-0.262 0-0.48 0.218-0.48 0.48v3.802zM4.282 22.957h2.842v2.842h-2.842v-2.842z"></path>
<path d="M18.912 23.034c0-0.262-0.218-0.48-0.48-0.48h-8.614c-0.262 0-0.48 0.218-0.48 0.48s0.218 0.48 0.48 0.48h8.614c0.269 0 0.48-0.218 0.48-0.48z"></path>
<path d="M9.818 24.691c-0.262 0-0.48 0.218-0.48 0.48s0.218 0.48 0.48 0.48h3.712c0.262 0 0.48-0.218 0.48-0.48s-0.218-0.48-0.48-0.48h-3.712z"></path>
<path d="M21.638 28.134c0 0.265-0.215 0.48-0.48 0.48s-0.48-0.215-0.48-0.48c0-0.265 0.215-0.48 0.48-0.48s0.48 0.215 0.48 0.48z"></path>
<path d="M21.158 3.584h-4.32l-0.218-1.21c-0.045-0.224-0.243-0.397-0.474-0.397h-3.034c-0.211-0.742-0.902-1.261-1.677-1.261-0.781 0-1.466 0.518-1.677 1.261h-3.034c-0.237 0-0.435 0.173-0.474 0.397l-0.218 1.21h-4.32c-0.128 0-0.25 0.051-0.339 0.141s-0.141 0.211-0.141 0.339v26.573c0 0.128 0.051 0.25 0.141 0.339s0.211 0.141 0.339 0.141h19.443c0.128 0 0.25-0.051 0.339-0.141s0.141-0.211 0.141-0.339v-1.222c0-0.262-0.218-0.48-0.48-0.48-0.269 0-0.48 0.218-0.48 0.48v0.742h-18.483v-25.613h3.674l-0.115 0.634c-0.026 0.141 0.013 0.282 0.109 0.39 0.090 0.109 0.224 0.173 0.365 0.173h10.419c0.141 0 0.275-0.064 0.365-0.173s0.128-0.25 0.109-0.39l-0.115-0.634h3.674v22.31c0 0.269 0.211 0.48 0.48 0.48 0.262 0 0.48-0.211 0.48-0.48v-22.79c0-0.128-0.051-0.25-0.141-0.339-0.096-0.090-0.211-0.141-0.339-0.141zM6.797 4.781l0.333-1.843h3.040c0.134 0 0.25-0.045 0.339-0.141 0.096-0.090 0.141-0.205 0.141-0.339 0-0.429 0.352-0.781 0.787-0.781 0.429 0 0.781 0.352 0.781 0.781 0 0.128 0.051 0.256 0.141 0.339 0.090 0.090 0.211 0.141 0.339 0.141h3.046l0.326 1.843h-9.274z"></path>
<path d="M3.802 13.6h3.795c0.128 0 0.25-0.051 0.339-0.141s0.141-0.211 0.141-0.339v-3.802c0-0.128-0.051-0.25-0.141-0.339s-0.211-0.141-0.339-0.141h-3.795c-0.128 0-0.25 0.051-0.339 0.141s-0.141 0.211-0.141 0.339v3.802c0 0.122 0.051 0.25 0.141 0.339s0.211 0.141 0.339 0.141zM4.275 9.798h2.842v2.842h-2.842v-2.842z"></path>
<path d="M9.818 10.355h8.614c0.269 0 0.48-0.218 0.48-0.48 0-0.269-0.211-0.48-0.48-0.48h-8.614c-0.262 0-0.48 0.211-0.48 0.48 0 0.262 0.218 0.48 0.48 0.48z"></path>
<path d="M9.818 12.493h3.718c0.262 0 0.48-0.218 0.48-0.48 0-0.269-0.218-0.48-0.48-0.48h-3.718c-0.262 0-0.48 0.211-0.48 0.48 0 0.262 0.218 0.48 0.48 0.48z"></path>
<path d="M3.322 19.699c0 0.128 0.051 0.25 0.141 0.339 0.083 0.090 0.211 0.141 0.339 0.141h3.795c0.128 0 0.25-0.051 0.339-0.141s0.141-0.211 0.141-0.339v-3.802c0-0.128-0.051-0.25-0.141-0.339s-0.211-0.141-0.339-0.141h-3.795c-0.128 0-0.256 0.051-0.339 0.141-0.090 0.090-0.141 0.211-0.141 0.339v3.802zM4.275 16.378h2.842v2.842h-2.842v-2.842z"></path>
<path d="M9.818 16.934h8.614c0.269 0 0.48-0.218 0.48-0.48 0-0.269-0.211-0.48-0.48-0.48h-8.614c-0.262 0-0.48 0.211-0.48 0.48 0 0.262 0.218 0.48 0.48 0.48z"></path>
<path d="M9.818 19.072h3.718c0.262 0 0.48-0.218 0.48-0.48 0-0.269-0.218-0.48-0.48-0.48h-3.718c-0.262 0-0.48 0.211-0.48 0.48 0 0.262 0.218 0.48 0.48 0.48z"></path>
<path d="M28.89 19.917c0 0.265-0.215 0.48-0.48 0.48s-0.48-0.215-0.48-0.48c0-0.265 0.215-0.48 0.48-0.48s0.48 0.215 0.48 0.48z"></path>
<path d="M31.021 8.179c-0.090-0.090-0.211-0.141-0.339-0.141h-1.792v-1.395c0-1.376-1.114-2.49-2.49-2.49-1.37 0-2.49 1.114-2.49 2.49v16.544l0.006 0.032c0.006 0.058 0.019 0.115 0.038 0.166v0.013l2.010 4.026c0.083 0.166 0.25 0.262 0.429 0.262 0.186 0 0.352-0.096 0.429-0.262l2.016-4.032v-0.013c0.026-0.058 0.045-0.122 0.045-0.192v-1.984c0-0.269-0.211-0.48-0.48-0.48-0.262 0-0.48 0.211-0.48 0.48v1.504h-3.059v-13.709h3.059v9.638c0 0.262 0.218 0.48 0.48 0.48 0.269 0 0.48-0.218 0.48-0.48v-9.638h1.312v7.354c0 0.269 0.218 0.48 0.48 0.48s0.48-0.211 0.48-0.48v-7.834c0.006-0.128-0.045-0.25-0.134-0.339zM26.4 26.131l-1.235-2.47h2.464l-1.229 2.47zM24.87 8.038v-1.395c0.006-0.845 0.691-1.53 1.53-1.53 0.845 0 1.53 0.685 1.53 1.53v1.395h-3.059z"></path>
</symbol>
<symbol id="icon-phone" viewBox="0 0 32 32">
<path d="M30.667 23.227c0.021-0.952-0.315-1.872-0.897-2.591-0.613-0.755-1.505-1.289-2.567-1.44-1.067-0.131-2.26-0.419-3.448-0.861-0.577-0.212-1.191-0.291-1.792-0.232-0.884 0.085-1.743 0.465-2.425 1.14l-0.96 0.96c-2.36-1.489-4.48-3.556-6.111-6.119l0.968-0.968c0.429-0.44 0.751-0.968 0.943-1.541 0.283-0.843 0.285-1.781-0.052-2.681-0.385-1.004-0.691-2.192-0.859-3.46-0.139-0.952-0.608-1.793-1.284-2.405-0.719-0.648-1.675-1.039-2.703-1.028h-3.995c-0.117 0-0.243 0.005-0.364 0.016-1.099 0.1-2.056 0.637-2.711 1.421s-1.011 1.823-0.911 2.932c0.4 4.101 1.82 8.324 4.288 12.136 2.003 3.217 4.864 6.164 8.397 8.408 3.424 2.263 7.579 3.816 12.115 4.308 0.123 0.012 0.255 0.017 0.384 0.017 1.104-0.004 2.104-0.457 2.824-1.183s1.164-1.729 1.16-2.828zM28 23.227v4c0.001 0.373-0.145 0.707-0.387 0.949s-0.572 0.393-0.941 0.395c-4.199-0.448-7.948-1.855-11.017-3.883-3.237-2.057-5.812-4.716-7.603-7.592-2.263-3.493-3.54-7.308-3.899-10.984-0.032-0.357 0.085-0.701 0.305-0.965s0.537-0.44 0.904-0.473l4.117-0.007c0.361-0.004 0.676 0.125 0.916 0.341 0.227 0.205 0.384 0.488 0.431 0.811 0.189 1.429 0.544 2.823 1.009 4.033 0.108 0.288 0.107 0.596 0.013 0.877-0.065 0.193-0.175 0.375-0.323 0.527l-1.683 1.681c-0.432 0.432-0.505 1.085-0.216 1.601 2.112 3.713 5.119 6.609 8.508 8.504 0.529 0.296 1.176 0.192 1.593-0.221l1.693-1.693c0.221-0.219 0.503-0.343 0.797-0.372 0.203-0.020 0.413 0.007 0.612 0.080 1.363 0.508 2.76 0.848 4.045 1.005 0.321 0.045 0.616 0.221 0.82 0.473 0.196 0.241 0.308 0.549 0.301 0.909z"></path>
</symbol>
<symbol id="icon-social_github" viewBox="0 0 32 32">
<path d="M16 2c-7.731 0-14 6.425-14 14.356 0 6.344 4.013 11.719 9.575 13.619 0.7 0.131 0.956-0.313 0.956-0.694 0-0.344-0.012-1.244-0.019-2.444-3.894 0.869-4.719-1.925-4.719-1.925-0.638-1.656-1.556-2.1-1.556-2.1-1.269-0.894 0.094-0.875 0.094-0.875 1.406 0.1 2.144 1.481 2.144 1.481 1.25 2.194 3.275 1.563 4.075 1.194 0.125-0.925 0.488-1.563 0.887-1.919-3.106-0.363-6.375-1.594-6.375-7.094 0-1.569 0.544-2.85 1.438-3.85-0.144-0.363-0.625-1.825 0.137-3.8 0 0 1.175-0.388 3.85 1.469 1.119-0.319 2.313-0.475 3.506-0.481 1.188 0.006 2.387 0.162 3.506 0.481 2.675-1.856 3.844-1.469 3.844-1.469 0.762 1.975 0.281 3.438 0.137 3.8 0.894 1.006 1.438 2.287 1.438 3.85 0 5.513-3.275 6.725-6.394 7.081 0.5 0.444 0.95 1.319 0.95 2.656 0 1.919-0.019 3.469-0.019 3.938 0 0.381 0.25 0.831 0.962 0.688 5.575-1.894 9.581-7.269 9.581-13.606 0-7.931-6.269-14.356-14-14.356z"></path>
</symbol>
<symbol id="icon-whatsapp" viewBox="0 0 32 32">
<path d="M22.133 19.333c-0.267-0.133-2-0.933-2.267-1.067s-0.533-0.133-0.8 0.133c-0.267 0.267-0.8 1.067-1.067 1.333-0.133 0.267-0.4 0.267-0.667 0.133-0.933-0.4-1.867-0.933-2.667-1.6-0.667-0.667-1.333-1.467-1.867-2.267-0.133-0.267 0-0.533 0.133-0.667s0.267-0.4 0.533-0.533c0.133-0.133 0.267-0.4 0.267-0.533 0.133-0.133 0.133-0.4 0-0.533s-0.8-1.733-1.067-2.4c-0.133-0.933-0.4-0.933-0.667-0.933-0.133 0-0.4 0-0.667 0s-0.667 0.267-0.8 0.4c-0.8 0.8-1.2 1.733-1.2 2.8 0.133 1.2 0.533 2.4 1.333 3.467 1.467 2.133 3.333 3.867 5.6 4.933 0.667 0.267 1.2 0.533 1.867 0.667 0.667 0.267 1.333 0.267 2.133 0.133 0.933-0.133 1.733-0.8 2.267-1.6 0.267-0.533 0.267-1.067 0.133-1.6 0 0-0.267-0.133-0.533-0.267zM25.467 7.2c-5.2-5.2-13.6-5.2-18.8 0-4.267 4.267-5.067 10.8-2.133 16l-1.867 6.8 7.067-1.867c2 1.067 4.133 1.6 6.267 1.6 7.333 0 13.2-5.867 13.2-13.2 0.133-3.467-1.333-6.8-3.733-9.333zM21.867 25.867c-1.733 1.067-3.733 1.733-5.867 1.733-2 0-3.867-0.533-5.6-1.467l-0.4-0.267-4.133 1.067 1.067-4-0.267-0.4c-3.2-5.333-1.6-12 3.6-15.333s11.867-1.6 15.067 3.467c3.2 5.2 1.733 12-3.467 15.2z"></path>
</symbol>
<symbol id="icon-x" viewBox="0 0 32 32">
<path d="M7.057 9.609l7.057 7.057-7.057 7.057c-0.521 0.521-0.521 1.365 0 1.885s1.365 0.521 1.885 0l7.057-7.057 7.057 7.057c0.521 0.521 1.365 0.521 1.885 0s0.521-1.365 0-1.885l-7.057-7.057 7.057-7.057c0.521-0.521 0.521-1.365 0-1.885s-1.365-0.521-1.885 0l-7.057 7.057-7.057-7.057c-0.521-0.521-1.365-0.521-1.885 0s-0.521 1.365 0 1.885z"></path>
</symbol>
<symbol id="icon-youtube" viewBox="0 0 32 32">
<path d="M16 4.667c0 0 0 0 0 1.333v1.333h-0.101c-0.067 0-0.165 0-0.292 0.001-0.253 0.001-0.618 0.004-1.063 0.008-0.89 0.010-2.1 0.029-3.379 0.067-1.281 0.038-2.621 0.095-3.777 0.179-1.184 0.086-2.064 0.195-2.502 0.31-0.398 0.114-0.76 0.331-1.048 0.629-0.282 0.29-0.484 0.647-0.589 1.037-0.399 2.232-0.595 4.495-0.583 6.762v0.015c-0.014 2.276 0.18 4.549 0.579 6.79 0.115 0.37 0.32 0.707 0.596 0.98 0.289 0.286 0.647 0.493 1.039 0.601 0.436 0.116 1.319 0.225 2.508 0.312 1.155 0.084 2.496 0.141 3.777 0.179 1.279 0.038 2.489 0.057 3.379 0.067 0.445 0.005 0.81 0.007 1.063 0.008 0.127 0.001 0.225 0.001 0.292 0.001h0.201c0.067 0 0.165 0 0.292-0.001 0.253-0.001 0.618-0.004 1.063-0.008 0.89-0.010 2.1-0.029 3.379-0.067 1.281-0.038 2.621-0.095 3.777-0.179 1.184-0.086 2.064-0.195 2.502-0.31 0.398-0.114 0.76-0.331 1.048-0.629 0.281-0.29 0.484-0.647 0.589-1.037 0.396-2.215 0.592-4.461 0.583-6.71v-0.013c0.014-2.284-0.181-4.565-0.583-6.813-0.105-0.39-0.307-0.747-0.589-1.037-0.285-0.294-0.642-0.509-1.035-0.625-0.453-0.107-1.336-0.205-2.508-0.283-1.158-0.077-2.5-0.129-3.782-0.164-1.28-0.035-2.49-0.052-3.381-0.061-0.445-0.004-0.81-0.007-1.063-0.008l-0.393-0.001v-1.333c0-1.333 0-1.333 0-1.333h0.106c0.069 0 0.169 0 0.298 0.001 0.257 0.001 0.627 0.003 1.078 0.008 0.901 0.009 2.127 0.026 3.427 0.062 1.298 0.035 2.679 0.088 3.887 0.169 1.173 0.078 2.286 0.188 2.987 0.359 0.016 0.004 0.031 0.008 0.047 0.012 0.853 0.241 1.628 0.704 2.246 1.34s1.056 1.425 1.271 2.285c0.007 0.029 0.013 0.058 0.019 0.087 0.437 2.424 0.65 4.882 0.635 7.345 0.008 2.426-0.204 4.847-0.635 7.235-0.005 0.029-0.011 0.058-0.019 0.087-0.215 0.86-0.654 1.649-1.271 2.285s-1.392 1.099-2.246 1.34l-0.018 0.005c-0.712 0.19-1.834 0.311-3.007 0.396-1.21 0.088-2.593 0.146-3.892 0.185-1.301 0.039-2.528 0.058-3.429 0.068-0.451 0.005-0.821 0.007-1.079 0.008-0.129 0.001-0.23 0.001-0.298 0.001h-0.213c-0.069 0-0.17-0.001-0.298-0.001-0.258-0.001-0.628-0.004-1.079-0.008-0.901-0.010-2.128-0.029-3.429-0.068-1.299-0.039-2.682-0.097-3.892-0.185-1.172-0.085-2.295-0.206-3.007-0.396l-0.007-0.002c-0.836-0.229-1.599-0.669-2.215-1.279s-1.065-1.368-1.302-2.202c-0.012-0.042-0.022-0.085-0.030-0.129-0.437-2.423-0.65-4.882-0.635-7.344-0.012-2.444 0.201-4.884 0.635-7.289 0.005-0.029 0.012-0.058 0.019-0.087 0.215-0.86 0.654-1.649 1.272-2.285s1.392-1.099 2.246-1.341l0.019-0.005c0.712-0.19 1.834-0.311 3.007-0.396 1.21-0.088 2.593-0.146 3.892-0.185 1.301-0.039 2.528-0.058 3.429-0.068 0.451-0.005 0.821-0.007 1.079-0.008 0.129-0.001 0.23-0.001 0.298-0.001h0.106zM12.33 10.821c0.41-0.239 0.917-0.241 1.329-0.007l7.667 4.36c0.417 0.237 0.674 0.68 0.674 1.159s-0.257 0.922-0.674 1.159l-7.667 4.36c-0.413 0.235-0.919 0.232-1.329-0.006s-0.663-0.678-0.663-1.153v-8.72c0-0.475 0.252-0.914 0.663-1.153zM14.333 14.265v4.136l3.636-2.068-3.636-2.068z"></path>
</symbol>
</defs>
</svg>
