<!-- Generated by IcoMoon.io -->
<svg version="1.1" xmlns="http://www.w3.org/2000/svg" width="32" height="32" viewBox="0 0 32 32">
<title>business_launch_rocket</title>
<path d="M6.182 20.534s-2.166 1.716-2.304 6.431c-0 0.007-0 0.015-0 0.024 0 0.526 0.426 0.952 0.952 0.952 0.004 0 0.007-0 0.011-0h-0.001c4.562-0.085 6.431-2.317 6.431-2.317 0.629-0.661 1.015-1.558 1.015-2.545s-0.387-1.883-1.017-2.546l0.001 0.002c-1.405-1.405-3.488-1.337-5.089 0z"></path>
<path d="M16.252 22.213c0.62 0.81 1.031 1.811 1.136 2.902l0.002 0.023c0.018 0.296 0.029 0.643 0.029 0.992 0 1.403-0.169 2.766-0.489 4.071l0.024-0.117c-0.011 0.048-0.018 0.103-0.018 0.16 0 0.396 0.321 0.718 0.718 0.718 0.123 0 0.239-0.031 0.341-0.086l-0.004 0.002c3.847-2.027 7.023-5.944 4.997-11.054-1.921 1.236-4.205 2.085-6.658 2.382l-0.077 0.008z"></path>
<path d="M6.665 14.412c1.115 0.107 2.117 0.519 2.941 1.15l-0.014-0.010c0.3-2.532 1.15-4.817 2.427-6.801l-0.038 0.063c-5.111-2.029-9.028 1.15-11.057 4.997-0.052 0.097-0.083 0.212-0.083 0.334 0 0.164 0.055 0.314 0.148 0.435l-0.001-0.002c0.132 0.175 0.34 0.287 0.574 0.287 0.055 0 0.109-0.006 0.161-0.018l-0.005 0.001c1.188-0.295 2.553-0.464 3.957-0.464 0.348 0 0.694 0.010 1.038 0.031l-0.047-0.002z"></path>
<path d="M30.209 2.674c-0.088-0.556-0.521-0.989-1.070-1.076l-0.007-0.001c-0.734-0.116-1.58-0.183-2.442-0.183-0.814 0-1.614 0.059-2.397 0.174l0.089-0.011c0.395 3.056 2.79 5.449 5.813 5.839l0.034 0.004c0.104-0.692 0.163-1.492 0.163-2.305 0-0.862-0.066-1.708-0.194-2.533l0.012 0.092z"></path>
<path d="M23.057 1.824c-2.468 0.58-4.606 1.752-6.333 3.359l0.008-0.008c-5.837 5.405-5.816 10.884-5.816 10.884l4.831 4.831s5.48 0.021 10.884-5.816c1.6-1.72 2.772-3.859 3.333-6.234l0.019-0.094c-3.604-0.501-6.423-3.319-6.922-6.88l-0.005-0.043zM20.831 13.791c-1.557 0-2.82-1.263-2.82-2.82s1.263-2.82 2.82-2.82c1.557 0 2.82 1.263 2.82 2.82v0c0 1.557-1.263 2.82-2.82 2.82v0z"></path>
</svg>
