<!-- Generated by IcoMoon.io -->
<svg version="1.1" xmlns="http://www.w3.org/2000/svg" width="32" height="32" viewBox="0 0 32 32">
<title>business_management_plan_project_report_icon</title>
<path d="M17.888 12.156h-7.086c-0.194 0-0.352-0.181-0.352-0.375s0.158-0.375 0.352-0.375h6.663c-0.161-0.25-0.302-0.688-0.421-0.938h-6.243c-0.194 0-0.352-0.18-0.352-0.375 0-0.194 0.158-0.375 0.352-0.375h6.026c-0.155-0.563-0.239-1.225-0.239-1.877 0-1.191 0.264-2.31 0.753-3.31h-13.134c-0.579 0-0.989 0.489-0.989 1.069v20.181h14.492c0.359 0 0.703 0.111 0.972 0.345 0.033 0.027 0.083 0.065 0.154 0.145l0.028 0.014c0.22 0.264 0.354 0.596 0.354 0.944v1.556c0 0.911 0.563 2.212 1.313 2.212v-0.018c-1.188-0.018-2.125-0.992-2.125-2.194v-1.556c0-0.155-0.082-0.298-0.173-0.408 0 0-0.061-0.051-0.081-0.066-0.113-0.102-0.277-0.162-0.441-0.162h-16.109c-0.354 0-0.633 0.281-0.633 0.636v1.512c0 1.238 0.995 2.228 2.233 2.228h17.313c0.563 0 1.015-0.169 1.388-0.462 0.513-0.401 0.879-1.020 0.879-1.723v-13.423c-2.063-0.394-3.781-1.518-4.894-3.206zM6.815 9.364c0.386 0 0.74 0.128 1.028 0.342l-1.264 1.264-0.228-0.27c-0.138-0.163-0.382-0.184-0.545-0.046s-0.183 0.382-0.046 0.545l0.5 0.591c0.070 0.083 0.171 0.132 0.279 0.137 0.005 0 0.011 0 0.016 0 0.102 0 0.201-0.040 0.273-0.113l1.518-1.518c0.123 0.237 0.194 0.506 0.194 0.792 0 0.952-0.772 1.725-1.725 1.725s-1.724-0.772-1.724-1.725c0-0.953 0.772-1.725 1.724-1.725zM6.815 14.852c0.386 0 0.74 0.128 1.028 0.342l-1.264 1.264-0.228-0.27c-0.138-0.163-0.382-0.183-0.545-0.046s-0.183 0.382-0.046 0.545l0.5 0.591c0.070 0.082 0.171 0.132 0.279 0.137 0.005 0 0.011 0 0.016 0 0.102 0 0.201-0.041 0.273-0.113l1.518-1.517c0.123 0.237 0.194 0.506 0.194 0.792 0 0.953-0.772 1.725-1.725 1.725s-1.724-0.772-1.724-1.725 0.772-1.725 1.724-1.725zM6.815 23.789c-0.952 0-1.724-0.772-1.724-1.724s0.772-1.725 1.724-1.725c0.386 0 0.74 0.128 1.028 0.342l-1.264 1.264-0.228-0.27c-0.138-0.163-0.382-0.183-0.545-0.046s-0.183 0.382-0.046 0.545l0.5 0.591c0.070 0.083 0.171 0.132 0.279 0.137 0.005 0 0.011 0 0.016 0 0.102 0 0.201-0.041 0.273-0.113l1.518-1.517c0.123 0.237 0.194 0.506 0.194 0.792 0 0.952-0.772 1.724-1.725 1.724zM19.527 23.094h-8.725c-0.194 0-0.352-0.15-0.352-0.344s0.157-0.344 0.352-0.344h8.725c0.194 0 0.352 0.15 0.352 0.344s-0.157 0.344-0.352 0.344zM19.527 21.406h-8.725c-0.194 0-0.352-0.15-0.352-0.344s0.157-0.344 0.352-0.344h8.725c0.194 0 0.352 0.15 0.352 0.344s-0.157 0.344-0.352 0.344zM19.527 17.594h-8.725c-0.194 0-0.352-0.15-0.352-0.344s0.157-0.344 0.352-0.344h8.725c0.194 0 0.352 0.15 0.352 0.344s-0.157 0.344-0.352 0.344zM19.879 15.563c0 0.194-0.157 0.344-0.352 0.344h-8.725c-0.194 0-0.352-0.15-0.352-0.344s0.157-0.344 0.352-0.344h8.725c0.194 0 0.352 0.15 0.352 0.344z"></path>
<path d="M24.204 1.022c-3.784 0-6.853 3.068-6.853 6.854 0 3.784 3.069 6.853 6.853 6.853 3.785 0 6.853-3.068 6.853-6.853-0-3.786-3.067-6.854-6.853-6.854zM24.594 8.799c0 0.006-0.001 0.013-0.003 0.018-0.006 0.143-0.092 0.273-0.223 0.333-0.052 0.024-0.109 0.035-0.163 0.035-0.084 0-0.169-0.028-0.238-0.083-0.004-0.003-0.008-0.007-0.013-0.010l-2.185-1.858c-0.163-0.138-0.183-0.382-0.044-0.544 0.138-0.163 0.333-0.183 0.495-0.045l1.499 1.316v-4.032c0-0.214 0.224-0.387 0.438-0.387s0.438 0.173 0.438 0.387v4.868z"></path>
</svg>
