<!-- Generated by IcoMoon.io -->
<svg version="1.1" xmlns="http://www.w3.org/2000/svg" width="32" height="32" viewBox="0 0 32 32">
<title>code_coding_development_programming_web_icon</title>
<path fill="#3d3d63" d="M5.509 8.395c0 0.295-0.239 0.533-0.533 0.533s-0.533-0.239-0.533-0.533c0-0.295 0.239-0.533 0.533-0.533s0.533 0.239 0.533 0.533z"></path>
<path fill="#3d3d63" d="M9.067 8.395c0 0.295-0.239 0.533-0.533 0.533s-0.533-0.239-0.533-0.533c0-0.295 0.239-0.533 0.533-0.533s0.533 0.239 0.533 0.533z"></path>
<path fill="#3d3d63" d="M7.291 8.395c0 0.295-0.239 0.533-0.533 0.533s-0.533-0.239-0.533-0.533c0-0.295 0.239-0.533 0.533-0.533s0.533 0.239 0.533 0.533z"></path>
<path fill="#3d3d63" d="M10.667 16.133l1.6-1.6c0.097-0.097 0.157-0.231 0.157-0.379 0-0.296-0.24-0.536-0.536-0.536-0.148 0-0.282 0.060-0.379 0.157v0l-1.984 1.989c-0.096 0.096-0.155 0.229-0.155 0.376s0.059 0.28 0.155 0.376l-0-0 1.984 1.989c0.097 0.097 0.231 0.158 0.379 0.158s0.282-0.060 0.379-0.158l0-0c0.096-0.096 0.155-0.229 0.155-0.376s-0.059-0.28-0.155-0.376l0 0z"></path>
<path fill="#3d3d63" d="M18.304 18.496c0.096 0.096 0.229 0.155 0.376 0.155s0.28-0.059 0.376-0.155l-0 0 1.989-1.963c0.096-0.096 0.155-0.229 0.155-0.376s-0.059-0.28-0.155-0.376l-1.989-1.989c-0.096-0.096-0.229-0.155-0.376-0.155-0.295 0-0.534 0.239-0.534 0.534 0 0.148 0.060 0.282 0.158 0.379l1.6 1.6-1.6 1.6c-0.094 0.096-0.152 0.228-0.152 0.373s0.058 0.277 0.153 0.373l-0-0z"></path>
<path fill="#3d3d63" d="M16.533 13.947c-0.077-0.045-0.169-0.072-0.267-0.072-0.197 0-0.37 0.107-0.462 0.267l-0.001 0.003-1.968 3.456c-0.052 0.081-0.083 0.18-0.083 0.286 0 0.295 0.239 0.533 0.533 0.533 0.204 0 0.382-0.115 0.471-0.283l0.001-0.003 1.989-3.44c0.047-0.078 0.075-0.172 0.075-0.273 0-0.205-0.116-0.383-0.285-0.472l-0.003-0.001z"></path>
<path fill="#3d3d63" d="M29.792 21.333c-0.066-0.001-0.122-0.042-0.144-0.1l-0-0.001c-0.228-0.591-0.528-1.1-0.898-1.551l0.008 0.010c-0.017-0.025-0.027-0.055-0.027-0.088s0.010-0.063 0.028-0.088l-0 0c0.103-0.176 0.164-0.387 0.164-0.613 0-0.451-0.244-0.845-0.606-1.059l-0.006-0.003-0.4-0.24v-9.739c0-0.884-0.716-1.6-1.6-1.6v0h-22.043c-0.884 0-1.6 0.716-1.6 1.6v0 13.515c0.003 0.685 0.558 1.24 1.242 1.243h7.291l-0.533 1.973h-0.709c-1.086 0.001-1.996 0.75-2.242 1.76l-0.003 0.016h-1.312c-0.295 0-0.533 0.239-0.533 0.533s0.239 0.533 0.533 0.533v0h13.584c-0.002 0.024-0.003 0.052-0.003 0.080 0 0.106 0.015 0.209 0.042 0.307l-0.002-0.008c0.084 0.322 0.29 0.586 0.565 0.744l0.006 0.003 1.125 0.651c0.175 0.102 0.386 0.163 0.611 0.163 0.453 0 0.848-0.245 1.061-0.61l0.003-0.006c0.030-0.046 0.081-0.077 0.14-0.077 0.009 0 0.018 0.001 0.027 0.002l-0.001-0c0.266 0.048 0.573 0.076 0.885 0.076s0.619-0.028 0.917-0.081l-0.031 0.005c0.008-0.001 0.017-0.002 0.026-0.002 0.060 0 0.112 0.033 0.139 0.081l0 0.001c0.217 0.366 0.61 0.608 1.059 0.608 0.003 0 0.005 0 0.008-0h-0c0.003 0 0.008 0 0.012 0 0.221 0 0.429-0.059 0.607-0.163l-0.006 0.003 1.125-0.651c0.279-0.163 0.484-0.426 0.569-0.738l0.002-0.009c0.027-0.095 0.043-0.205 0.043-0.318 0-0.225-0.061-0.435-0.169-0.615l0.003 0.006c-0.018-0.025-0.028-0.057-0.028-0.091s0.011-0.065 0.029-0.091l-0 0.001c0.361-0.44 0.662-0.948 0.878-1.498l0.013-0.038c0.021-0.059 0.076-0.101 0.141-0.101 0.001 0 0.002 0 0.003 0h-0c0.676-0.003 1.224-0.55 1.227-1.226v-1.302c-0.012-0.665-0.551-1.199-1.215-1.205h-0.001zM3.733 7.861c0-0.295 0.239-0.533 0.533-0.533v0h22.043c0.295 0 0.533 0.239 0.533 0.533v0 1.6h-23.109zM3.909 21.552c-0.097 0-0.176-0.079-0.176-0.176v-10.848h23.109v6.539c-0.094-0.026-0.202-0.041-0.314-0.041-0.435 0-0.816 0.227-1.033 0.569l-0.003 0.005c-0.028 0.044-0.076 0.072-0.131 0.072-0.010 0-0.020-0.001-0.030-0.003l0.001 0c-0.266-0.046-0.573-0.072-0.885-0.072s-0.619 0.026-0.918 0.076l0.032-0.005c-0.010 0.002-0.021 0.003-0.032 0.003-0.054 0-0.102-0.029-0.128-0.072l-0-0.001c-0.215-0.37-0.609-0.614-1.060-0.614-0.227 0-0.439 0.062-0.621 0.169l0.006-0.003-1.125 0.651c-0.28 0.16-0.486 0.421-0.569 0.733l-0.002 0.008c-0.027 0.097-0.043 0.209-0.043 0.324 0 0.224 0.060 0.434 0.164 0.615l-0.003-0.006c0.019 0.024 0.030 0.055 0.030 0.088s-0.011 0.064-0.030 0.088l0-0c-0.362 0.441-0.663 0.951-0.878 1.503l-0.013 0.038c-0.022 0.059-0.078 0.101-0.144 0.101h-0c-0.273 0-0.525 0.090-0.729 0.242l0.003-0.002zM18.133 24.592h-6.4l0.533-1.973h5.6v1.221c0.004 0.286 0.104 0.547 0.269 0.755l-0.002-0.003zM9.963 25.659h9.493c0.137 0.275 0.276 0.508 0.429 0.729l-0.013-0.020h-11.035c0.204-0.422 0.628-0.708 1.12-0.709h0zM29.952 23.84c0 0.088-0.072 0.16-0.16 0.16v0c-0.52 0.001-0.964 0.325-1.144 0.781l-0.003 0.008c-0.183 0.476-0.424 0.887-0.721 1.251l0.006-0.008c-0.171 0.21-0.274 0.48-0.274 0.775 0 0.225 0.060 0.436 0.166 0.617l-0.003-0.006c0.008 0.017 0.013 0.037 0.013 0.059s-0.005 0.041-0.013 0.059l0-0.001c-0.010 0.044-0.037 0.080-0.074 0.101l-0.001 0-1.109 0.629c-0.022 0.013-0.049 0.020-0.078 0.020-0.061 0-0.113-0.034-0.14-0.083l-0-0.001c-0.218-0.367-0.612-0.609-1.063-0.609-0.071 0-0.141 0.006-0.209 0.018l0.007-0.001c-0.213 0.038-0.459 0.060-0.709 0.060s-0.496-0.022-0.735-0.064l0.025 0.004c-0.060-0.010-0.128-0.016-0.199-0.016-0.453 0-0.848 0.244-1.062 0.608l-0.003 0.006c-0.030 0.047-0.081 0.078-0.141 0.078-0.029 0-0.055-0.007-0.079-0.020l0.001 0-1.125-0.651c-0.038-0.022-0.065-0.058-0.074-0.1l-0-0.001c-0.008-0.017-0.013-0.037-0.013-0.059s0.005-0.041 0.013-0.059l-0 0.001c0.101-0.176 0.16-0.386 0.16-0.61 0-0.295-0.103-0.566-0.274-0.779l0.002 0.002c-0.293-0.355-0.536-0.766-0.71-1.212l-0.010-0.030c-0.183-0.452-0.617-0.766-1.125-0.768h-0c-0.088 0-0.16-0.072-0.16-0.16v0-1.301c-0-0.002-0-0.004-0-0.005 0-0.085 0.069-0.155 0.155-0.155 0.002 0 0.004 0 0.006 0h-0c0.518-0.002 0.961-0.325 1.138-0.781l0.003-0.008c0.182-0.477 0.425-0.888 0.726-1.25l-0.006 0.007c0.17-0.211 0.272-0.481 0.272-0.776 0-0.224-0.059-0.435-0.163-0.616l0.003 0.006c-0.008-0.018-0.013-0.039-0.013-0.061s0.005-0.043 0.014-0.062l-0 0.001c0.009-0.043 0.037-0.077 0.074-0.096l0.001-0 1.125-0.651c0.012-0.003 0.026-0.005 0.040-0.005s0.028 0.002 0.041 0.006l-0.001-0c0.056 0.001 0.105 0.030 0.133 0.074l0 0.001c0.219 0.369 0.615 0.613 1.068 0.613 0.069 0 0.137-0.006 0.203-0.017l-0.007 0.001c0.213-0.038 0.459-0.060 0.709-0.060s0.496 0.022 0.735 0.064l-0.025-0.004c0.050 0.007 0.108 0.011 0.166 0.011 0.465 0 0.871-0.256 1.084-0.634l0.003-0.006c0.027-0.046 0.077-0.076 0.133-0.076 0.030 0 0.057 0.008 0.081 0.023l-0.001-0 1.125 0.651c0.038 0.019 0.066 0.053 0.075 0.095l0 0.001c0.008 0.018 0.013 0.039 0.013 0.061s-0.005 0.043-0.014 0.062l0-0.001c-0.102 0.175-0.162 0.385-0.162 0.609 0 0.294 0.103 0.563 0.276 0.775l-0.002-0.002c0.29 0.357 0.532 0.77 0.704 1.217l0.011 0.031c0.173 0.474 0.614 0.808 1.134 0.821l0.002 0c0.002-0 0.004-0 0.005-0 0.085 0 0.155 0.069 0.155 0.155 0 0.002-0 0.004-0 0.006v-0z"></path>
<path fill="#3d3d63" d="M24.443 20.768c-1.337 0-2.421 1.084-2.421 2.421s1.084 2.421 2.421 2.421c1.337 0 2.421-1.084 2.421-2.421v0c0-1.337-1.084-2.421-2.421-2.421v0zM24.443 24.544c-0.748 0-1.355-0.607-1.355-1.355s0.607-1.355 1.355-1.355c0.748 0 1.355 0.607 1.355 1.355v0c-0.006 0.744-0.61 1.344-1.355 1.344 0 0-0 0-0 0v0z"></path>
</svg>
