<!-- Generated by IcoMoon.io -->
<svg version="1.1" xmlns="http://www.w3.org/2000/svg" width="32" height="32" viewBox="0 0 32 32">
<title>cosmetic</title>
<path d="M26.287 26.602l-2.508-5.866-1.082-2.525c-0.822-1.889-2.673-3.185-4.825-3.185-0.746 0-1.455 0.155-2.097 0.436l0.034-0.013-0.384 0.165c-0.815 0.357-1.4 1.103-1.524 1.997l-0.002 0.013v-0.157c0-0.283-0.229-0.512-0.512-0.512v0h-0.44v-4.786c0-0.283-0.229-0.512-0.512-0.512v0h-0.166v-8.425c-0.001-0.096-0.012-0.189-0.032-0.278l0.002 0.009c-0.003-0.1-0.034-0.192-0.087-0.269l0.001 0.002c-0.209-0.459-0.664-0.773-1.193-0.773-0.203 0-0.395 0.046-0.566 0.129l0.008-0.003c-1.921 0.92-3.225 2.845-3.233 5.075v4.534h-0.032c-0.283 0-0.512 0.229-0.512 0.512v0 4.788h-0.44c-0.283 0-0.512 0.229-0.512 0.512v0 12.099c0 0.283 0.229 0.512 0.512 0.512v0h7.203c0.283 0 0.512-0.229 0.512-0.512v0-11.25c0.033 0.245 0.095 0.467 0.185 0.674l-0.006-0.016 4.646 10.862c0.080 0.184 0.261 0.31 0.47 0.31 0 0 0 0 0.001 0h-0c0.001 0 0.001 0 0.002 0 0.072 0 0.14-0.015 0.202-0.042l-0.003 0.001 6.623-2.833c0.125-0.055 0.222-0.154 0.273-0.277l0.001-0.003c0.023-0.056 0.036-0.121 0.036-0.19 0-0.073-0.015-0.142-0.043-0.205l0.001 0.003zM7.135 17.981h5.311l-1.972 4.419-3.777-2.54v-1.879zM10.912 23.921l1.619 1.084-3.341 2.771zM11.336 22.972l1.536-3.439v4.47zM10.834 2.972c0.036-0.017 0.078-0.028 0.122-0.028 0.057 0 0.111 0.017 0.155 0.046l-0.001-0.001c0.028 0.019 0.052 0.041 0.072 0.066l0 0.001c-0.366 1.366-1.725 2.703-2.908 3.215 0.287-1.47 1.243-2.67 2.531-3.288l0.028-0.012zM8.192 7.382c1.024-0.297 2.217-1.144 3.052-2.239v6.514h-3.052zM7.648 12.681h4.275v4.276h-4.276zM6.697 21.093l3.354 2.249-2.554 5.714h-0.801zM9.257 29.052l3.625-3.002v3.005zM16.372 21.72l3.484 2.107-1.783 1.869zM20.755 24.371l3.016 1.824-4.685-0.077zM21.478 23.612l1.674-1.754 1.595 3.731zM15.013 17.398c0.154-0.38 0.446-0.678 0.812-0.836l0.010-0.004 0.384-0.165c0.489-0.214 1.059-0.339 1.658-0.339 1.732 0 3.22 1.042 3.872 2.534l0.011 0.027 0.948 2.22-2.132 2.235-4.899-2.963-0.655-1.536c-0.079-0.179-0.125-0.387-0.125-0.606 0-0.204 0.040-0.398 0.112-0.576l-0.004 0.010zM18.688 27.136l4.87 0.079-4.088 1.748zM10.6 14.647h-1.631c-0.283 0-0.512 0.229-0.512 0.512s0.229 0.512 0.512 0.512v0h1.631c0.283 0 0.512-0.229 0.512-0.512s-0.229-0.512-0.512-0.512v0z"></path>
</svg>
