<!-- Generated by IcoMoon.io -->
<svg version="1.1" xmlns="http://www.w3.org/2000/svg" width="32" height="32" viewBox="0 0 32 32">
<title>facebook</title>
<path d="M14.343 4.343c1.5-1.5 3.535-2.343 5.657-2.343h4c0.736 0 1.333 0.597 1.333 1.333v5.333c0 0.736-0.597 1.333-1.333 1.333h-4v2.667h4c0.411 0 0.798 0.189 1.051 0.513s0.342 0.746 0.243 1.144l-1.333 5.333c-0.148 0.594-0.682 1.010-1.293 1.010h-2.667v9.333c0 0.736-0.597 1.333-1.333 1.333h-5.333c-0.736 0-1.333-0.597-1.333-1.333v-9.333h-2.667c-0.736 0-1.333-0.597-1.333-1.333v-5.333c0-0.736 0.597-1.333 1.333-1.333h2.667v-2.667c0-2.122 0.843-4.157 2.343-5.657zM20 4.667c-1.415 0-2.771 0.562-3.771 1.562s-1.562 2.357-1.562 3.771v4c0 0.736-0.597 1.333-1.333 1.333h-2.667v2.667h2.667c0.736 0 1.333 0.597 1.333 1.333v9.333h2.667v-9.333c0-0.736 0.597-1.333 1.333-1.333h2.959l0.667-2.667h-3.626c-0.736 0-1.333-0.597-1.333-1.333v-4c0-0.707 0.281-1.386 0.781-1.886s1.178-0.781 1.886-0.781h2.667v-2.667h-2.667z"></path>
</svg>
