<!-- Generated by IcoMoon.io -->
<svg version="1.1" xmlns="http://www.w3.org/2000/svg" width="32" height="32" viewBox="0 0 32 32">
<title>html</title>
<path d="M6.667 4c-0.368 0-0.667-0.297-0.667-0.667v-2.667c0-0.368 0.299-0.667 0.667-0.667s0.667 0.299 0.667 0.667v2.667c0 0.369-0.299 0.667-0.667 0.667z"></path>
<path d="M9.333 2.667h-2.667c-0.368 0-0.667-0.297-0.667-0.667s0.299-0.667 0.667-0.667h2.667c0.368 0 0.667 0.299 0.667 0.667s-0.299 0.667-0.667 0.667z"></path>
<path d="M9.333 4c-0.368 0-0.667-0.297-0.667-0.667v-2.667c0-0.368 0.299-0.667 0.667-0.667s0.667 0.299 0.667 0.667v2.667c0 0.369-0.299 0.667-0.667 0.667z"></path>
<path d="M14.667 1.333h-2.667c-0.368 0-0.667-0.297-0.667-0.667s0.299-0.667 0.667-0.667h2.667c0.368 0 0.667 0.299 0.667 0.667s-0.299 0.667-0.667 0.667z"></path>
<path d="M13.333 4c-0.368 0-0.667-0.297-0.667-0.667v-2.667c0-0.368 0.299-0.667 0.667-0.667s0.667 0.299 0.667 0.667v2.667c0 0.369-0.299 0.667-0.667 0.667z"></path>
<path d="M21.333 4c-0.368 0-0.667-0.299-0.667-0.667v-0.667l-0.8 1.067c-0.251 0.336-0.815 0.336-1.067 0l-0.8-1.067v0.667c0 0.369-0.299 0.667-0.667 0.667s-0.667-0.299-0.667-0.667v-2.667c0-0.287 0.184-0.541 0.456-0.632 0.272-0.092 0.572 0.003 0.744 0.232l1.467 1.955 1.467-1.955c0.172-0.229 0.471-0.324 0.744-0.232 0.272 0.091 0.456 0.345 0.456 0.632v2.667c0 0.369-0.299 0.667-0.667 0.667z"></path>
<path d="M26 4h-2c-0.368 0-0.667-0.299-0.667-0.667v-2.667c0-0.368 0.299-0.667 0.667-0.667s0.667 0.299 0.667 0.667v2h1.333c0.368 0 0.667 0.299 0.667 0.667s-0.299 0.667-0.667 0.667z"></path>
<path d="M16.667 32c-0.061 0-0.123-0.008-0.183-0.025l-9.333-2.667c-0.264-0.076-0.455-0.305-0.481-0.579l-2-21.333c-0.017-0.187 0.045-0.372 0.171-0.511 0.127-0.14 0.305-0.219 0.493-0.219h21.333c0.188 0 0.367 0.079 0.493 0.219 0.127 0.139 0.188 0.324 0.171 0.511l-2 21.333c-0.025 0.263-0.203 0.487-0.453 0.569l-8 2.667c-0.068 0.023-0.14 0.035-0.211 0.035zM7.955 28.151l8.697 2.484 7.392-2.464 1.891-20.171h-19.869l1.889 20.151z"></path>
<path d="M16.667 26.667c-0.061 0-0.123-0.008-0.183-0.025l-4.667-1.333c-0.229-0.065-0.407-0.249-0.464-0.48l-0.667-2.667c-0.089-0.357 0.128-0.719 0.485-0.808 0.355-0.089 0.719 0.127 0.808 0.485l0.573 2.293 4.099 1.171 3.395-1.132 0.549-5.504h-9.929c-0.336 0-0.62-0.251-0.661-0.584l-0.667-5.333c-0.024-0.189 0.035-0.38 0.161-0.524 0.127-0.143 0.308-0.225 0.5-0.225h12.667c0.368 0 0.667 0.299 0.667 0.667s-0.299 0.667-0.667 0.667h-11.912l0.5 4h10.079c0.188 0 0.368 0.080 0.495 0.22 0.127 0.139 0.188 0.327 0.169 0.513l-0.667 6.667c-0.027 0.261-0.203 0.483-0.452 0.565l-4 1.333c-0.069 0.023-0.141 0.035-0.212 0.035z"></path>
</svg>
