<!-- Generated by IcoMoon.io -->
<svg version="1.1" xmlns="http://www.w3.org/2000/svg" width="32" height="32" viewBox="0 0 32 32">
<title>launch_rocket_space_spacecraft_spaceship_icon</title>
<path fill="#5aa096" d="M29.376 22.070c-0.359-0.359-0.778-0.62-1.225-0.785v-9.105c0-0.326-0.267-0.593-0.593-0.593s-0.593 0.267-0.593 0.593v8.892c-0.344 0-0.688 0.053-1.019 0.156v-6.158c0-0.326-0.267-0.593-0.593-0.593-0.172 0-0.328 0.075-0.436 0.193v-3.98c0-0.444-0.363-0.808-0.808-0.808-0.022 0-0.045 0.002-0.067 0.003v-2.319c0-0.326-0.267-0.593-0.593-0.593s-0.593 0.267-0.593 0.593v15.053c-0.43 0.313-0.756 0.748-0.938 1.244-0.005-0.046-0.012-0.093-0.021-0.139v-11.7c0-0.444-0.363-0.808-0.808-0.808s-0.808 0.363-0.808 0.808v10.544c-0.040 0.006-0.080 0.012-0.121 0.022-0.344 0.078-0.631 0.272-0.829 0.532-0.003-0.024-0.006-0.048-0.010-0.072-0.258-1.591-1.757-2.672-3.349-2.413-1.135 0.184-2.009 1-2.324 2.030-0.314-0.637-0.97-1.075-1.728-1.075-0.351 0-0.68 0.094-0.963 0.258v-7.298c0-0.571-0.467-1.037-1.037-1.037s-1.037 0.467-1.037 1.037v8.368c-0.099 0.014-0.195 0.036-0.288 0.064-0.136-0.219-0.298-0.427-0.488-0.617-0.059-0.059-0.12-0.115-0.183-0.169v-10.315c0-0.326-0.267-0.593-0.593-0.593s-0.593 0.267-0.593 0.593v9.649c-0.291-0.093-0.591-0.147-0.894-0.16v-6.599c0-0.326-0.267-0.593-0.593-0.593s-0.593 0.267-0.593 0.593v6.757c-0.502 0.16-0.975 0.438-1.373 0.836-1.331 1.331-1.331 3.489 0 4.821s3.49 1.331 4.821 0c0.167-0.167 0.313-0.347 0.438-0.537 0.194 0.066 0.401 0.102 0.618 0.102 0.003 0 0.006-0 0.009-0 0.189 0.198 0.455 0.323 0.749 0.323 0.109 0 0.213-0.017 0.312-0.048 1.292 0.394 3.168 0.641 5.256 0.641 2.331 0 4.398-0.309 5.683-0.785 0.254 0.222 0.586 0.357 0.95 0.357 0.302 0 0.581-0.092 0.813-0.25 0.57 0.384 1.287 0.55 2.014 0.404 0.060-0.012 0.119-0.027 0.177-0.042 1.32 0.847 3.095 0.695 4.25-0.46 1.331-1.331 1.331-3.489-0-4.821z"></path>
<path fill="#2f485e" d="M26.41 27.853c0 0.798-4.512 1.445-10.078 1.445s-10.078-0.647-10.078-1.445c0-0.798 4.512-1.445 10.078-1.445s10.078 0.647 10.078 1.445z"></path>
<path fill="#466c6f" d="M29.376 22.070c-0.359-0.359-0.778-0.62-1.225-0.785v-9.105c0-0.326-0.267-0.593-0.593-0.593s-0.593 0.267-0.593 0.593v8.892c-0.344 0-0.688 0.053-1.019 0.156v-6.158c0-0.326-0.267-0.593-0.593-0.593s-0.593 0.267-0.593 0.593v6.812c-0.070 0.060-0.14 0.122-0.206 0.189-0.013 0.013-0.026 0.027-0.039 0.041-0.156-0.005-0.314 0.003-0.473 0.026v-14.571c0-0.326-0.267-0.593-0.593-0.593s-0.593 0.267-0.593 0.593v15.053c-0.43 0.313-0.756 0.748-0.938 1.244-0.006-0.061-0.015-0.121-0.029-0.183-0.176-0.778-0.95-1.267-1.728-1.091-0.344 0.078-0.631 0.272-0.829 0.532-0.003-0.024-0.006-0.048-0.010-0.072-0.258-1.591-1.757-2.672-3.349-2.413-1.135 0.184-2.009 1-2.324 2.030-0.314-0.637-0.97-1.075-1.728-1.075-0.924 0-1.696 0.651-1.883 1.518-0.263-0.134-0.56-0.211-0.875-0.211-0.198 0-0.388 0.030-0.568 0.085-0.136-0.219-0.298-0.427-0.488-0.617-0.059-0.059-0.12-0.115-0.183-0.169v-10.315c0-0.326-0.267-0.593-0.593-0.593s-0.593 0.267-0.593 0.593v9.649c-0.291-0.093-0.591-0.147-0.894-0.16v-6.599c0-0.326-0.267-0.593-0.593-0.593s-0.593 0.267-0.593 0.593v6.757c-0.502 0.16-0.975 0.438-1.373 0.836-1.331 1.331-1.331 3.489 0 4.821s3.49 1.331 4.821 0c0.167-0.167 0.313-0.347 0.438-0.537 0.194 0.066 0.401 0.102 0.618 0.102 0.093 0 0.185-0.007 0.275-0.020 1.234 0.56 3.482 0.935 6.051 0.935 2.331 0 4.398-0.309 5.683-0.785 0.254 0.222 0.586 0.357 0.95 0.357 0.302 0 0.581-0.092 0.813-0.25 0.57 0.384 1.287 0.55 2.014 0.404 0.060-0.012 0.119-0.027 0.177-0.042 1.32 0.847 3.095 0.695 4.25-0.46 1.331-1.331 1.331-3.489-0-4.821z"></path>
<path fill="#ff7143" d="M17.461 19.16h-2.257l-0.558 6.328h3.374z"></path>
<path fill="#ffd800" d="M15.766 19.16l-0.462 6.328h2.057l-0.462-6.328z"></path>
<path fill="#ddd" d="M15.006 19.883h-2.080l0.365-2.541 1.127-1.8h0.588z"></path>
<path fill="#c6c6c6" d="M17.658 19.883h2.080l-0.365-2.541-1.127-1.8h-0.588z"></path>
<path fill="#f4f4f4" d="M16.335 1.887v-0c-0.001 0-0.002 0-0.003 0s-0.002-0-0.003-0v0c-1.458 0.006-2.639 4.664-2.639 8.455 0 2.263 0.508 6.265 1.266 7.777 0 0 1.279 0 1.373 0 0.003 0 0.005 0 0.006 0 0.094 0 1.373 0 1.373 0 0.758-1.512 1.266-5.514 1.266-7.777 0-3.791-1.181-8.45-2.64-8.455z"></path>
<path fill="#52c9d5" d="M17.926 10.889c0 0.88-0.714 1.594-1.594 1.594s-1.594-0.714-1.594-1.594c0-0.88 0.714-1.594 1.594-1.594s1.594 0.714 1.594 1.594z"></path>
<path fill="#fff" d="M17.43 10.889c0 0.606-0.492 1.098-1.098 1.098s-1.098-0.492-1.098-1.098c0-0.606 0.492-1.098 1.098-1.098s1.098 0.492 1.098 1.098z"></path>
<path fill="#52c9d5" d="M14.998 18.12h2.668v1.040h-2.668v-1.040z"></path>
<path fill="#52c9d5" d="M16.332 1.887c-0.001 0-0.002-0-0.003-0v0c-1.091 0.004-2.027 2.614-2.429 5.516h4.864c-0.402-2.902-1.338-5.512-2.429-5.516v-0c-0.001 0-0.002 0-0.003 0z"></path>
<path fill="#49bac0" d="M16.347 18.12h1.319v1.040h-1.319v-1.040z"></path>
<path fill="#e0e0e0" d="M16.347 1.888v16.232c0.158 0 1.362 0 1.362 0 0.758-1.512 1.266-5.514 1.266-7.777 0-3.78-1.175-8.424-2.628-8.454z"></path>
<path fill="#49bac0" d="M16.347 9.295v3.187c0.874-0.008 1.579-0.718 1.579-1.594s-0.706-1.586-1.579-1.594z"></path>
<path fill="#f4f4f4" d="M16.347 9.791v2.195c0.6-0.008 1.084-0.496 1.084-1.097s-0.484-1.089-1.084-1.097z"></path>
<path fill="#49bac0" d="M16.347 7.404h2.418c-0.401-2.892-1.331-5.493-2.418-5.516v5.516z"></path>
<path fill="#466c6f" d="M2.16 28.186c0 0.327-0.265 0.593-0.593 0.593s-0.593-0.265-0.593-0.593c0-0.327 0.265-0.593 0.593-0.593s0.593 0.265 0.593 0.593z"></path>
<path fill="#466c6f" d="M11.080 20.424c0 0.655-0.531 1.186-1.186 1.186s-1.186-0.531-1.186-1.186c0-0.655 0.531-1.186 1.186-1.186s1.186 0.531 1.186 1.186z"></path>
<path fill="#466c6f" d="M23.724 29.149c0 0.327-0.265 0.593-0.593 0.593s-0.593-0.265-0.593-0.593c0-0.327 0.265-0.593 0.593-0.593s0.593 0.265 0.593 0.593z"></path>
<path fill="#5aa096" d="M13.309 24.41c0 0.442-0.359 0.801-0.801 0.801s-0.801-0.359-0.801-0.801c0-0.442 0.359-0.801 0.801-0.801s0.801 0.359 0.801 0.801z"></path>
<path fill="#5aa096" d="M17.113 25.76c0 0.236-0.191 0.427-0.427 0.427s-0.427-0.191-0.427-0.427c0-0.236 0.191-0.427 0.427-0.427s0.427 0.191 0.427 0.427z"></path>
<path fill="#66b2b2" d="M5.155 25.616c0 0.327-0.265 0.593-0.593 0.593s-0.593-0.265-0.593-0.593c0-0.327 0.265-0.593 0.593-0.593s0.593 0.265 0.593 0.593z"></path>
<path fill="#66b2b2" d="M29.318 25.577c0 0.327-0.265 0.593-0.593 0.593s-0.593-0.265-0.593-0.593c0-0.327 0.265-0.593 0.593-0.593s0.593 0.265 0.593 0.593z"></path>
<path fill="#5aa096" d="M21.024 25.32c0 0.552-0.448 1-1 1s-1-0.448-1-1c0-0.552 0.448-1 1-1s1 0.448 1 1z"></path>
<path fill="#5aa096" d="M27.874 26.556c-0.155 0-0.304 0.022-0.446 0.062 0.001-0.021 0.002-0.041 0.002-0.062 0-1.187-0.962-2.149-2.149-2.149s-2.149 0.962-2.149 2.149c0 1.187 0.962 2.149 2.149 2.149 0.356 0 0.692-0.087 0.988-0.241 0.132 0.768 0.801 1.352 1.606 1.352 0.9 0 1.63-0.73 1.63-1.63s-0.73-1.63-1.63-1.63z"></path>
<path fill="#5aa096" d="M14.387 28.927c0 0.655-0.531 1.186-1.186 1.186s-1.186-0.531-1.186-1.186c0-0.655 0.531-1.186 1.186-1.186s1.186 0.531 1.186 1.186z"></path>
<path fill="#5aa096" d="M10.271 25.927c-0.463-0.463-1.214-0.463-1.677 0-0.085 0.085-0.154 0.18-0.208 0.281-0.46-0.376-1.072-0.561-1.705-0.459-1.172 0.19-1.967 1.294-1.777 2.465s1.294 1.967 2.466 1.777c1.039-0.169 1.781-1.056 1.804-2.071 0.383 0.085 0.8-0.020 1.098-0.318 0.463-0.463 0.463-1.214 0-1.677z"></path>
<path fill="#ffd326" d="M10.663 7.403l0.325 0.658 0.726 0.105-0.525 0.512 0.124 0.723-0.649-0.341-0.649 0.341 0.124-0.723-0.525-0.512 0.726-0.105z"></path>
<path fill="#ffd326" d="M29.975 15.528l0.325 0.658 0.726 0.105-0.525 0.512 0.124 0.723-0.649-0.341-0.649 0.341 0.124-0.723-0.525-0.512 0.726-0.105z"></path>
<path fill="#ffd326" d="M2.163 17.465l0.325 0.658 0.726 0.105-0.525 0.512 0.124 0.723-0.649-0.341-0.649 0.341 0.124-0.723-0.525-0.512 0.726-0.105z"></path>
</svg>
