<!-- Generated by IcoMoon.io -->
<svg version="1.1" xmlns="http://www.w3.org/2000/svg" width="32" height="32" viewBox="0 0 32 32">
<title>linkedin</title>
<path d="M26.523 5.125c0.195 0 0.352 0.158 0.352 0.353v21.047c0 0.195-0.158 0.352-0.352 0.352v0h-21.045c-0.195 0-0.353-0.158-0.353-0.352v0-21.047c0-0.195 0.158-0.353 0.353-0.353v0h21.047zM26.525 3.5h-21.047c-1.092 0-1.978 0.885-1.978 1.978v0 21.047c0.001 1.091 0.886 1.975 1.978 1.975h21.047c1.092 0 1.977-0.885 1.977-1.977v0-21.045c0-1.092-0.885-1.978-1.977-1.978-0.001 0-0.002 0-0.003 0v0z"></path>
<path d="M9.318 12.6h2.932v10.432h-2.933v-10.432z"></path>
<path d="M19.308 12.6c-2.512 0-2.558 1.453-2.558 1.553v-1.553h-3v10.432h3v-5.955c0-0.465 0.137-1.465 1.558-1.465s1.407 1.433 1.407 1.433v6h2.968v-6.5c0-3.082-1.683-3.945-3.375-3.945z"></path>
<path d="M12.248 10.432c0 0.809-0.656 1.465-1.465 1.465s-1.465-0.656-1.465-1.465c0-0.809 0.656-1.465 1.465-1.465s1.465 0.656 1.465 1.465z"></path>
</svg>
