<!-- Generated by IcoMoon.io -->
<svg version="1.1" xmlns="http://www.w3.org/2000/svg" width="32" height="32" viewBox="0 0 32 32">
<title>mail</title>
<path d="M5.333 7.333c-0.73 0-1.333 0.603-1.333 1.333v16c0 0.73 0.603 1.333 1.333 1.333h21.333c0.73 0 1.333-0.603 1.333-1.333v-16c0-0.73-0.603-1.333-1.333-1.333h-21.333zM1.333 8.667c0-2.203 1.797-4 4-4h21.333c2.203 0 4 1.797 4 4v16c0 2.203-1.797 4-4 4h-21.333c-2.203 0-4-1.797-4-4v-16zM1.574 7.902c0.422-0.603 1.254-0.75 1.857-0.328l12.569 8.798 12.569-8.798c0.603-0.422 1.435-0.276 1.857 0.328s0.276 1.435-0.328 1.857l-13.333 9.333c-0.459 0.321-1.070 0.321-1.529 0l-13.333-9.333c-0.603-0.422-0.75-1.254-0.328-1.857z"></path>
</svg>
