<!-- Generated by IcoMoon.io -->
<svg version="1.1" xmlns="http://www.w3.org/2000/svg" width="32" height="32" viewBox="0 0 32 32">
<title>P11</title>
<path d="M3.795 22.477h3.802v3.802h-3.802v-3.802z"></path>
<path d="M16.64 5.267h-10.413l0.499-2.803h3.45c0-0.704 0.57-1.261 1.261-1.261 0.698 0 1.261 0.563 1.261 1.261h3.45l0.493 2.803z"></path>
<path d="M3.795 9.325h3.802v3.802h-3.802v-3.802z"></path>
<path d="M3.795 15.904h3.802v3.802h-3.802v-3.802z"></path>
<path d="M3.795 22.477h3.802v3.802h-3.802v-3.802z"></path>
<path d="M24.39 6.643v16.538l2.010 4.026 2.010-4.026v-16.538c0-1.107-0.902-2.010-2.010-2.010v0c-1.114 0-2.010 0.902-2.010 2.010z"></path>
<path d="M24.39 23.053v0.128l2.010 4.026 2.010-4.026v-0.128z"></path>
<path d="M3.322 26.278c0 0.262 0.218 0.48 0.48 0.48h3.802c0.262 0 0.48-0.218 0.48-0.48v-3.802c0-0.262-0.218-0.48-0.48-0.48h-3.802c-0.262 0-0.48 0.218-0.48 0.48v3.802zM4.282 22.957h2.842v2.842h-2.842v-2.842z"></path>
<path d="M18.912 23.034c0-0.262-0.218-0.48-0.48-0.48h-8.614c-0.262 0-0.48 0.218-0.48 0.48s0.218 0.48 0.48 0.48h8.614c0.269 0 0.48-0.218 0.48-0.48z"></path>
<path d="M9.818 24.691c-0.262 0-0.48 0.218-0.48 0.48s0.218 0.48 0.48 0.48h3.712c0.262 0 0.48-0.218 0.48-0.48s-0.218-0.48-0.48-0.48h-3.712z"></path>
<path d="M21.638 28.134c0 0.265-0.215 0.48-0.48 0.48s-0.48-0.215-0.48-0.48c0-0.265 0.215-0.48 0.48-0.48s0.48 0.215 0.48 0.48z"></path>
<path d="M21.158 3.584h-4.32l-0.218-1.21c-0.045-0.224-0.243-0.397-0.474-0.397h-3.034c-0.211-0.742-0.902-1.261-1.677-1.261-0.781 0-1.466 0.518-1.677 1.261h-3.034c-0.237 0-0.435 0.173-0.474 0.397l-0.218 1.21h-4.32c-0.128 0-0.25 0.051-0.339 0.141s-0.141 0.211-0.141 0.339v26.573c0 0.128 0.051 0.25 0.141 0.339s0.211 0.141 0.339 0.141h19.443c0.128 0 0.25-0.051 0.339-0.141s0.141-0.211 0.141-0.339v-1.222c0-0.262-0.218-0.48-0.48-0.48-0.269 0-0.48 0.218-0.48 0.48v0.742h-18.483v-25.613h3.674l-0.115 0.634c-0.026 0.141 0.013 0.282 0.109 0.39 0.090 0.109 0.224 0.173 0.365 0.173h10.419c0.141 0 0.275-0.064 0.365-0.173s0.128-0.25 0.109-0.39l-0.115-0.634h3.674v22.31c0 0.269 0.211 0.48 0.48 0.48 0.262 0 0.48-0.211 0.48-0.48v-22.79c0-0.128-0.051-0.25-0.141-0.339-0.096-0.090-0.211-0.141-0.339-0.141zM6.797 4.781l0.333-1.843h3.040c0.134 0 0.25-0.045 0.339-0.141 0.096-0.090 0.141-0.205 0.141-0.339 0-0.429 0.352-0.781 0.787-0.781 0.429 0 0.781 0.352 0.781 0.781 0 0.128 0.051 0.256 0.141 0.339 0.090 0.090 0.211 0.141 0.339 0.141h3.046l0.326 1.843h-9.274z"></path>
<path d="M3.802 13.6h3.795c0.128 0 0.25-0.051 0.339-0.141s0.141-0.211 0.141-0.339v-3.802c0-0.128-0.051-0.25-0.141-0.339s-0.211-0.141-0.339-0.141h-3.795c-0.128 0-0.25 0.051-0.339 0.141s-0.141 0.211-0.141 0.339v3.802c0 0.122 0.051 0.25 0.141 0.339s0.211 0.141 0.339 0.141zM4.275 9.798h2.842v2.842h-2.842v-2.842z"></path>
<path d="M9.818 10.355h8.614c0.269 0 0.48-0.218 0.48-0.48 0-0.269-0.211-0.48-0.48-0.48h-8.614c-0.262 0-0.48 0.211-0.48 0.48 0 0.262 0.218 0.48 0.48 0.48z"></path>
<path d="M9.818 12.493h3.718c0.262 0 0.48-0.218 0.48-0.48 0-0.269-0.218-0.48-0.48-0.48h-3.718c-0.262 0-0.48 0.211-0.48 0.48 0 0.262 0.218 0.48 0.48 0.48z"></path>
<path d="M3.322 19.699c0 0.128 0.051 0.25 0.141 0.339 0.083 0.090 0.211 0.141 0.339 0.141h3.795c0.128 0 0.25-0.051 0.339-0.141s0.141-0.211 0.141-0.339v-3.802c0-0.128-0.051-0.25-0.141-0.339s-0.211-0.141-0.339-0.141h-3.795c-0.128 0-0.256 0.051-0.339 0.141-0.090 0.090-0.141 0.211-0.141 0.339v3.802zM4.275 16.378h2.842v2.842h-2.842v-2.842z"></path>
<path d="M9.818 16.934h8.614c0.269 0 0.48-0.218 0.48-0.48 0-0.269-0.211-0.48-0.48-0.48h-8.614c-0.262 0-0.48 0.211-0.48 0.48 0 0.262 0.218 0.48 0.48 0.48z"></path>
<path d="M9.818 19.072h3.718c0.262 0 0.48-0.218 0.48-0.48 0-0.269-0.218-0.48-0.48-0.48h-3.718c-0.262 0-0.48 0.211-0.48 0.48 0 0.262 0.218 0.48 0.48 0.48z"></path>
<path d="M28.89 19.917c0 0.265-0.215 0.48-0.48 0.48s-0.48-0.215-0.48-0.48c0-0.265 0.215-0.48 0.48-0.48s0.48 0.215 0.48 0.48z"></path>
<path d="M31.021 8.179c-0.090-0.090-0.211-0.141-0.339-0.141h-1.792v-1.395c0-1.376-1.114-2.49-2.49-2.49-1.37 0-2.49 1.114-2.49 2.49v16.544l0.006 0.032c0.006 0.058 0.019 0.115 0.038 0.166v0.013l2.010 4.026c0.083 0.166 0.25 0.262 0.429 0.262 0.186 0 0.352-0.096 0.429-0.262l2.016-4.032v-0.013c0.026-0.058 0.045-0.122 0.045-0.192v-1.984c0-0.269-0.211-0.48-0.48-0.48-0.262 0-0.48 0.211-0.48 0.48v1.504h-3.059v-13.709h3.059v9.638c0 0.262 0.218 0.48 0.48 0.48 0.269 0 0.48-0.218 0.48-0.48v-9.638h1.312v7.354c0 0.269 0.218 0.48 0.48 0.48s0.48-0.211 0.48-0.48v-7.834c0.006-0.128-0.045-0.25-0.134-0.339zM26.4 26.131l-1.235-2.47h2.464l-1.229 2.47zM24.87 8.038v-1.395c0.006-0.845 0.691-1.53 1.53-1.53 0.845 0 1.53 0.685 1.53 1.53v1.395h-3.059z"></path>
</svg>
