<!-- Generated by IcoMoon.io -->
<svg version="1.1" xmlns="http://www.w3.org/2000/svg" width="32" height="32" viewBox="0 0 32 32">
<title>phone</title>
<path d="M30.667 23.227c0.021-0.952-0.315-1.872-0.897-2.591-0.613-0.755-1.505-1.289-2.567-1.44-1.067-0.131-2.26-0.419-3.448-0.861-0.577-0.212-1.191-0.291-1.792-0.232-0.884 0.085-1.743 0.465-2.425 1.14l-0.96 0.96c-2.36-1.489-4.48-3.556-6.111-6.119l0.968-0.968c0.429-0.44 0.751-0.968 0.943-1.541 0.283-0.843 0.285-1.781-0.052-2.681-0.385-1.004-0.691-2.192-0.859-3.46-0.139-0.952-0.608-1.793-1.284-2.405-0.719-0.648-1.675-1.039-2.703-1.028h-3.995c-0.117 0-0.243 0.005-0.364 0.016-1.099 0.1-2.056 0.637-2.711 1.421s-1.011 1.823-0.911 2.932c0.4 4.101 1.82 8.324 4.288 12.136 2.003 3.217 4.864 6.164 8.397 8.408 3.424 2.263 7.579 3.816 12.115 4.308 0.123 0.012 0.255 0.017 0.384 0.017 1.104-0.004 2.104-0.457 2.824-1.183s1.164-1.729 1.16-2.828zM28 23.227v4c0.001 0.373-0.145 0.707-0.387 0.949s-0.572 0.393-0.941 0.395c-4.199-0.448-7.948-1.855-11.017-3.883-3.237-2.057-5.812-4.716-7.603-7.592-2.263-3.493-3.54-7.308-3.899-10.984-0.032-0.357 0.085-0.701 0.305-0.965s0.537-0.44 0.904-0.473l4.117-0.007c0.361-0.004 0.676 0.125 0.916 0.341 0.227 0.205 0.384 0.488 0.431 0.811 0.189 1.429 0.544 2.823 1.009 4.033 0.108 0.288 0.107 0.596 0.013 0.877-0.065 0.193-0.175 0.375-0.323 0.527l-1.683 1.681c-0.432 0.432-0.505 1.085-0.216 1.601 2.112 3.713 5.119 6.609 8.508 8.504 0.529 0.296 1.176 0.192 1.593-0.221l1.693-1.693c0.221-0.219 0.503-0.343 0.797-0.372 0.203-0.020 0.413 0.007 0.612 0.080 1.363 0.508 2.76 0.848 4.045 1.005 0.321 0.045 0.616 0.221 0.82 0.473 0.196 0.241 0.308 0.549 0.301 0.909z"></path>
</svg>
