<!-- Generated by IcoMoon.io -->
<svg version="1.1" xmlns="http://www.w3.org/2000/svg" width="32" height="32" viewBox="0 0 32 32">
<title>programming_flag_icon</title>
<path d="M31.125 4.224c-0.363-0.276-0.823-0.442-1.322-0.442-0.215 0-0.422 0.031-0.619 0.088l0.016-0.004c-3.029 0.865-7.14 2.848-12.495-0.444-2.054-1.281-4.548-2.041-7.219-2.041-1.457 0-2.861 0.226-4.18 0.645l0.098-0.027-1.404 0.509v-0.509c0-1.105-0.895-2-2-2s-2 0.895-2 2v0 28c0 1.105 0.895 2 2 2s2-0.895 2-2v0-5.333c10.549-3.843 11.012 2.667 19.227 2.667 2.299 0 2.628-0.392 7.177-1.692 0.928-0.273 1.594-1.117 1.596-2.116v-17.546c-0.002-0.715-0.342-1.349-0.869-1.752l-0.005-0.004zM26.040 14.708l-4 4c-0.182 0.188-0.437 0.305-0.719 0.305-0.552 0-1-0.448-1-1 0-0.282 0.117-0.538 0.305-0.719l3.292-3.294-3.292-3.292c-0.189-0.182-0.306-0.437-0.306-0.72 0-0.552 0.448-1 1-1 0.282 0 0.537 0.117 0.719 0.305l0 0 4 4c0.181 0.181 0.293 0.431 0.293 0.707s-0.112 0.526-0.293 0.707v0zM18.949 10.317l-2.667 8c-0.146 0.384-0.511 0.652-0.939 0.652-0.553 0-1.001-0.448-1.001-1.001 0-0.101 0.015-0.199 0.043-0.291l-0.002 0.007 2.667-8c0.127-0.418 0.508-0.717 0.96-0.717 0.553 0 1.001 0.448 1.001 1.001 0 0.125-0.023 0.245-0.065 0.356l0.002-0.007zM12.707 17.293c0.174 0.18 0.281 0.425 0.281 0.695 0 0.552-0.448 1-1 1-0.27 0-0.515-0.107-0.695-0.281l-4-4c-0.181-0.181-0.293-0.431-0.293-0.707s0.112-0.526 0.293-0.707l4-4c0.18-0.174 0.425-0.28 0.694-0.28 0.552 0 1 0.448 1 1 0 0.27-0.107 0.515-0.281 0.695l0-0-3.293 3.292z"></path>
</svg>
