<!-- Generated by IcoMoon.io -->
<svg version="1.1" xmlns="http://www.w3.org/2000/svg" width="32" height="32" viewBox="0 0 32 32">
<title>social_github_icon</title>
<path d="M16 2c-7.731 0-14 6.425-14 14.356 0 6.344 4.013 11.719 9.575 13.619 0.7 0.131 0.956-0.313 0.956-0.694 0-0.344-0.012-1.244-0.019-2.444-3.894 0.869-4.719-1.925-4.719-1.925-0.638-1.656-1.556-2.1-1.556-2.1-1.269-0.894 0.094-0.875 0.094-0.875 1.406 0.1 2.144 1.481 2.144 1.481 1.25 2.194 3.275 1.563 4.075 1.194 0.125-0.925 0.488-1.563 0.887-1.919-3.106-0.363-6.375-1.594-6.375-7.094 0-1.569 0.544-2.85 1.438-3.85-0.144-0.363-0.625-1.825 0.137-3.8 0 0 1.175-0.388 3.85 1.469 1.119-0.319 2.313-0.475 3.506-0.481 1.188 0.006 2.387 0.162 3.506 0.481 2.675-1.856 3.844-1.469 3.844-1.469 0.762 1.975 0.281 3.438 0.137 3.8 0.894 1.006 1.438 2.287 1.438 3.85 0 5.513-3.275 6.725-6.394 7.081 0.5 0.444 0.95 1.319 0.95 2.656 0 1.919-0.019 3.469-0.019 3.938 0 0.381 0.25 0.831 0.962 0.688 5.575-1.894 9.581-7.269 9.581-13.606 0-7.931-6.269-14.356-14-14.356z"></path>
</svg>
