<!-- Generated by IcoMoon.io -->
<svg version="1.1" xmlns="http://www.w3.org/2000/svg" width="32" height="32" viewBox="0 0 32 32">
<title>trim</title>
<path d="M16 18.662c0.607 0 1.154-0.365 1.386-0.926s0.104-1.205-0.325-1.635c-0.594-0.566-1.527-0.566-2.121 0-0.428 0.429-0.557 1.074-0.325 1.634s0.779 0.926 1.385 0.926zM15.646 16.809c0.195-0.195 0.512-0.195 0.707 0s0.195 0.512 0 0.707c-0.198 0.189-0.509 0.189-0.707 0-0.195-0.195-0.195-0.512 0-0.707zM22 11.662c0.133 0 0.26-0.053 0.354-0.146l4.5-4.5c0.189-0.196 0.187-0.508-0.006-0.701s-0.505-0.196-0.701-0.006l-4.5 4.5c-0.143 0.143-0.186 0.358-0.108 0.545s0.26 0.309 0.462 0.309zM19.5 14.162c0.133 0 0.26-0.053 0.354-0.147l1-1c0.189-0.196 0.187-0.508-0.006-0.701s-0.505-0.196-0.701-0.006l-1 1c-0.143 0.143-0.186 0.358-0.108 0.545s0.26 0.309 0.462 0.309zM6.5 25.662c-1.104 0-2 0.895-2 2s0.896 2 2 2 2-0.895 2-2c0-1.105-0.896-2-2-2v0zM6.5 28.662c-0.552 0-1-0.447-1-1s0.448-1 1-1 1 0.448 1 1c0 0.553-0.448 1-1 1zM25.519 29.662c1.104 0 2-0.895 2-2s-0.896-2-2-2c-1.105 0-2 0.895-2 2s0.895 2 2 2v0zM25.519 26.662c0.552 0 1 0.448 1 1s-0.448 1-1 1-1-0.447-1-1c0-0.552 0.448-1 1-1zM30.5 19.162c-1.104 0-2-0.895-2-2 0-0.276-0.224-0.5-0.5-0.5s-0.5 0.224-0.5 0.5c0 1.105-0.896 2-2 2-0.276 0-0.5 0.224-0.5 0.5s0.224 0.5 0.5 0.5c1.104 0 2 0.895 2 2 0 0.276 0.224 0.5 0.5 0.5s0.5-0.224 0.5-0.5c0-1.105 0.896-2 2-2 0.276 0 0.5-0.224 0.5-0.5s-0.224-0.5-0.5-0.5zM28 20.508c-0.223-0.335-0.51-0.623-0.845-0.845 0.335-0.222 0.622-0.51 0.845-0.845 0.223 0.335 0.51 0.622 0.845 0.845-0.335 0.223-0.622 0.51-0.845 0.845zM1.5 14.162c1.104 0 2 0.895 2 2 0 0.276 0.224 0.5 0.5 0.5s0.5-0.224 0.5-0.5c0-1.105 0.896-2 2-2 0.276 0 0.5-0.224 0.5-0.5s-0.224-0.5-0.5-0.5c-1.104 0-2-0.895-2-2 0-0.276-0.224-0.5-0.5-0.5s-0.5 0.224-0.5 0.5c0 1.105-0.896 2-2 2-0.276 0-0.5 0.224-0.5 0.5s0.224 0.5 0.5 0.5v0zM4 12.817c0.223 0.335 0.51 0.622 0.845 0.845-0.335 0.223-0.622 0.51-0.845 0.845-0.223-0.335-0.51-0.623-0.845-0.845 0.335-0.222 0.622-0.51 0.845-0.845v0zM13.1 18.856l-5.1 5.099c-0.476-0.195-0.986-0.294-1.5-0.293-2.209 0-4 1.791-4 4s1.791 4 4 4 4-1.791 4-4c-0-0.239-0.023-0.478-0.067-0.713l5.576-5.45 5.576 5.45c-0.044 0.235-0.066 0.474-0.067 0.713 0 2.209 1.791 4 4 4s4-1.791 4-4c0-2.209-1.791-4-4-4-0.514-0.001-1.024 0.099-1.5 0.293l-5.094-5.093 9.466-10.888c2.203-2.754 0.047-6.057 0.026-6.090-0.081-0.122-0.212-0.202-0.357-0.219s-0.292 0.030-0.4 0.13l-11.645 10.817-11.646-10.817c-0.108-0.099-0.254-0.147-0.4-0.13s-0.276 0.097-0.357 0.219c-0.022 0.033-2.177 3.336 0.039 6.105l9.451 10.866zM9.535 26.429c-0.128 0.125-0.179 0.309-0.135 0.482 0.321 1.242-0.183 2.551-1.255 3.257s-2.473 0.651-3.488-0.135c-1.014-0.786-1.416-2.13-1-3.344s1.558-2.029 2.841-2.027c0.479-0 0.952 0.115 1.377 0.337 0.194 0.1 0.429 0.063 0.584-0.090l5.294-5.294c0.296 0.279 0.638 0.505 1.011 0.667l0.528 0.516-5.759 5.63zM24.142 24.999c0.425-0.222 0.897-0.338 1.376-0.337 1.293-0.008 2.448 0.809 2.871 2.031s0.020 2.578-1.002 3.371c-1.022 0.793-2.435 0.847-3.514 0.133s-1.584-2.035-1.254-3.286c0.045-0.173-0.006-0.357-0.134-0.482l-6.064-5.928c0.689-0.106 1.328-0.42 1.833-0.9l5.305 5.305c0.154 0.155 0.39 0.192 0.584 0.092v0zM27.869 2.966c0.421 0.895 1.030 2.772-0.246 4.368l-9.977 11.474c-0.906 0.913-2.38 0.919-3.293 0.013s-0.919-2.38-0.013-3.293l13.528-12.563zM4.156 2.962l11.123 10.331-1.633 1.516c-0.551 0.534-0.904 1.239-1 2l-8.229-9.459c-1.299-1.623-0.688-3.493-0.262-4.387z"></path>
</svg>
