<!-- Generated by IcoMoon.io -->
<svg version="1.1" xmlns="http://www.w3.org/2000/svg" width="32" height="32" viewBox="0 0 32 32">
<title>woman-hair</title>
<path d="M7.5 10.167c1.104 0 2-0.895 2-2s-0.895-2-2-2c-1.105 0-2 0.895-2 2s0.895 2 2 2zM7.5 7.167c0.552 0 1 0.448 1 1s-0.448 1-1 1c-0.552 0-1-0.448-1-1s0.448-1 1-1zM7 15.167c0-1.104-0.896-2-2-2s-2 0.895-2 2 0.895 2 2 2c1.104 0 2-0.895 2-2zM4 15.167c0-0.552 0.448-1 1-1s1 0.448 1 1c0 0.552-0.448 1-1 1s-1-0.448-1-1zM6 20.167c-1.105 0-2 0.896-2 2s0.895 2 2 2c1.104 0 2-0.895 2-2s-0.896-2-2-2zM6 23.167c-0.552 0-1-0.448-1-1s0.448-1 1-1c0.552 0 1 0.448 1 1s-0.448 1-1 1zM24.5 10.167c1.104 0 2-0.895 2-2s-0.895-2-2-2c-1.105 0-2 0.895-2 2s0.895 2 2 2zM24.5 7.167c0.552 0 1 0.448 1 1s-0.448 1-1 1c-0.552 0-1-0.448-1-1s0.448-1 1-1zM25 15.167c0 1.104 0.895 2 2 2s2-0.895 2-2-0.895-2-2-2c-1.105 0-2 0.895-2 2v0zM28 15.167c0 0.552-0.448 1-1 1s-1-0.448-1-1c0-0.552 0.448-1 1-1s1 0.448 1 1zM28.341 18.93c1.811-0.643 2.907-2.483 2.611-4.381s-1.902-3.316-3.823-3.376c1.637-1.431 1.829-3.907 0.434-5.573s-3.867-1.912-5.563-0.552v-2.882c0-0.276-0.224-0.5-0.5-0.5h-11c-0.276 0-0.5 0.224-0.5 0.5v2.889c-1.693-1.364-4.167-1.122-5.564 0.544s-1.204 4.144 0.434 5.574c-1.92 0.060-3.526 1.478-3.822 3.376s0.8 3.738 2.611 4.381c-1.46 1.055-2.034 2.958-1.401 4.644s2.317 2.741 4.111 2.574c1.794-0.167 3.255-1.513 3.566-3.288 0.567 0.79 1.265 1.478 2.065 2.032v2.774h-4.5c-1.38 0.002-2.499 1.12-2.5 2.5v1c0 0.276 0.224 0.5 0.5 0.5h21c0.276 0 0.5-0.224 0.5-0.5v-1c-0.002-1.38-1.12-2.498-2.5-2.5h-4.5v-2.774c0.799-0.554 1.497-1.242 2.064-2.032 0.308 1.779 1.77 3.131 3.568 3.299s3.485-0.888 4.118-2.579c0.634-1.691 0.056-3.596-1.41-4.65zM30 15.167c0 1.657-1.343 3-3 3s-3-1.343-3-3c0-1.657 1.343-3 3-3 1.656 0.002 2.998 1.344 3 3zM23.471 13.288c-0.16-0.504-0.358-0.995-0.593-1.468 0.471 0.209 0.978 0.325 1.492 0.34-0.365 0.319-0.67 0.701-0.899 1.128zM24.5 5.167c1.593-0.002 2.91 1.242 2.999 2.833s-1.082 2.974-2.666 3.149c-1.584 0.175-3.028-0.919-3.289-2.491 0.257-0.020 0.454-0.234 0.456-0.491v-1.65c0.551-0.845 1.492-1.353 2.5-1.35zM21 7.667h-2.5v-5h2.5v5zM17.5 2.667v5h-3v-5h3zM8.529 13.288c-0.229-0.427-0.534-0.809-0.9-1.128 0.515-0.016 1.022-0.131 1.492-0.34-0.234 0.474-0.432 0.964-0.593 1.468zM11 2.667h2.5v5h-2.5v-5zM4.5 8.167c-0.002-1.325 0.866-2.494 2.135-2.875s2.637 0.117 3.365 1.225v1.65c0.001 0.257 0.199 0.471 0.456 0.491-0.265 1.531-1.654 2.606-3.202 2.478s-2.743-1.416-2.753-2.969zM2 15.167c0-1.657 1.343-3 3-3s3 1.343 3 3c0 1.657-1.343 3-3 3-1.656-0.002-2.999-1.344-3-3zM6 25.167c-1.657 0-3-1.343-3-3s1.343-3 3-3c1.657 0 3 1.343 3 3-0.002 1.656-1.344 2.998-3 3zM7.341 18.404c0.263-0.191 0.503-0.412 0.714-0.66 0.036 0.371 0.089 0.736 0.16 1.096-0.272-0.181-0.566-0.327-0.874-0.436zM19.232 24.203c-0.145 0.092-0.232 0.251-0.232 0.422v3.541c0 0.276 0.224 0.5 0.5 0.5h5c0.828 0 1.5 0.672 1.5 1.5v0.5h-20v-0.5c0-0.828 0.671-1.5 1.5-1.5h5c0.276 0 0.5-0.224 0.5-0.5v-3.543c0-0.171-0.088-0.331-0.232-0.422-2.324-1.475-3.768-4.362-3.768-7.534-0.050-2.563 0.97-5.031 2.814-6.811-0.17 1.097-0.275 2.203-0.314 3.311 0 0.276 0.224 0.5 0.5 0.5s0.5-0.224 0.5-0.5c0.068-1.389 0.218-2.773 0.45-4.144 0.223-0.133 0.453-0.252 0.69-0.356h0.276c-0.236 1.49-0.375 2.993-0.416 4.5 0 0.276 0.224 0.5 0.5 0.5s0.5-0.224 0.5-0.5c0.046-1.507 0.189-3.011 0.428-4.5h0.572v4.5c0 0.276 0.224 0.5 0.5 0.5s0.5-0.224 0.5-0.5v-4.5h0.572c0.239 1.489 0.382 2.993 0.428 4.5 0 0.276 0.224 0.5 0.5 0.5s0.5-0.224 0.5-0.5c-0.042-1.507-0.18-3.010-0.416-4.5h0.275c0.237 0.104 0.469 0.223 0.692 0.356 0.232 1.371 0.382 2.755 0.449 4.144 0 0.276 0.224 0.5 0.5 0.5s0.5-0.224 0.5-0.5c-0.039-1.109-0.144-2.215-0.314-3.311 1.845 1.78 2.864 4.249 2.814 6.811 0 3.173-1.444 6.059-3.768 7.534v0.002zM23.945 17.743c0.211 0.248 0.45 0.469 0.714 0.66-0.308 0.109-0.602 0.255-0.874 0.436 0.071-0.359 0.125-0.724 0.16-1.096zM26 25.167c-1.657 0-3-1.343-3-3s1.343-3 3-3c1.657 0 3 1.343 3 3-0.002 1.656-1.344 2.998-3 3zM26 20.167c-1.105 0-2 0.896-2 2s0.895 2 2 2c1.104 0 2-0.895 2-2s-0.895-2-2-2v0zM26 23.167c-0.552 0-1-0.448-1-1s0.448-1 1-1c0.552 0 1 0.448 1 1s-0.448 1-1 1v0zM14.854 15.813c-0.195-0.195-0.512-0.195-0.707 0-0.36 0.39-0.866 0.613-1.397 0.613s-1.038-0.222-1.397-0.613c-0.196-0.189-0.508-0.186-0.701 0.008s-0.194 0.505-0.004 0.701c0.577 0.572 1.35 0.904 2.163 0.928 0.78-0.016 1.519-0.352 2.044-0.928 0.094-0.094 0.147-0.221 0.147-0.354s-0.053-0.261-0.147-0.354v0zM21.354 15.813c-0.195-0.195-0.512-0.195-0.707 0-0.36 0.39-0.866 0.613-1.397 0.613s-1.038-0.222-1.397-0.613c-0.196-0.189-0.508-0.186-0.701 0.008s-0.194 0.505-0.004 0.701c0.577 0.572 1.35 0.904 2.163 0.928 0.78-0.016 1.519-0.352 2.044-0.928 0.094-0.094 0.147-0.221 0.147-0.354s-0.053-0.261-0.147-0.354v0zM17.647 20.313c-1.588 1.587-3.122 0.168-3.294 0-0.196-0.189-0.509-0.186-0.701 0.007s-0.195 0.505-0.005 0.701c0.646 0.641 1.511 1.012 2.42 1.040 0.872-0.019 1.699-0.395 2.287-1.040 0.189-0.196 0.187-0.508-0.006-0.701s-0.505-0.196-0.701-0.006v-0.001z"></path>
</svg>
