<!-- Generated by IcoMoon.io -->
<svg version="1.1" xmlns="http://www.w3.org/2000/svg" width="32" height="32" viewBox="0 0 32 32">
<title>youtube</title>
<path d="M16 4.667c0 0 0 0 0 1.333v1.333h-0.101c-0.067 0-0.165 0-0.292 0.001-0.253 0.001-0.618 0.004-1.063 0.008-0.89 0.010-2.1 0.029-3.379 0.067-1.281 0.038-2.621 0.095-3.777 0.179-1.184 0.086-2.064 0.195-2.502 0.31-0.398 0.114-0.76 0.331-1.048 0.629-0.282 0.29-0.484 0.647-0.589 1.037-0.399 2.232-0.595 4.495-0.583 6.762v0.015c-0.014 2.276 0.18 4.549 0.579 6.79 0.115 0.37 0.32 0.707 0.596 0.98 0.289 0.286 0.647 0.493 1.039 0.601 0.436 0.116 1.319 0.225 2.508 0.312 1.155 0.084 2.496 0.141 3.777 0.179 1.279 0.038 2.489 0.057 3.379 0.067 0.445 0.005 0.81 0.007 1.063 0.008 0.127 0.001 0.225 0.001 0.292 0.001h0.201c0.067 0 0.165 0 0.292-0.001 0.253-0.001 0.618-0.004 1.063-0.008 0.89-0.010 2.1-0.029 3.379-0.067 1.281-0.038 2.621-0.095 3.777-0.179 1.184-0.086 2.064-0.195 2.502-0.31 0.398-0.114 0.76-0.331 1.048-0.629 0.281-0.29 0.484-0.647 0.589-1.037 0.396-2.215 0.592-4.461 0.583-6.71v-0.013c0.014-2.284-0.181-4.565-0.583-6.813-0.105-0.39-0.307-0.747-0.589-1.037-0.285-0.294-0.642-0.509-1.035-0.625-0.453-0.107-1.336-0.205-2.508-0.283-1.158-0.077-2.5-0.129-3.782-0.164-1.28-0.035-2.49-0.052-3.381-0.061-0.445-0.004-0.81-0.007-1.063-0.008l-0.393-0.001v-1.333c0-1.333 0-1.333 0-1.333h0.106c0.069 0 0.169 0 0.298 0.001 0.257 0.001 0.627 0.003 1.078 0.008 0.901 0.009 2.127 0.026 3.427 0.062 1.298 0.035 2.679 0.088 3.887 0.169 1.173 0.078 2.286 0.188 2.987 0.359 0.016 0.004 0.031 0.008 0.047 0.012 0.853 0.241 1.628 0.704 2.246 1.34s1.056 1.425 1.271 2.285c0.007 0.029 0.013 0.058 0.019 0.087 0.437 2.424 0.65 4.882 0.635 7.345 0.008 2.426-0.204 4.847-0.635 7.235-0.005 0.029-0.011 0.058-0.019 0.087-0.215 0.86-0.654 1.649-1.271 2.285s-1.392 1.099-2.246 1.34l-0.018 0.005c-0.712 0.19-1.834 0.311-3.007 0.396-1.21 0.088-2.593 0.146-3.892 0.185-1.301 0.039-2.528 0.058-3.429 0.068-0.451 0.005-0.821 0.007-1.079 0.008-0.129 0.001-0.23 0.001-0.298 0.001h-0.213c-0.069 0-0.17-0.001-0.298-0.001-0.258-0.001-0.628-0.004-1.079-0.008-0.901-0.010-2.128-0.029-3.429-0.068-1.299-0.039-2.682-0.097-3.892-0.185-1.172-0.085-2.295-0.206-3.007-0.396l-0.007-0.002c-0.836-0.229-1.599-0.669-2.215-1.279s-1.065-1.368-1.302-2.202c-0.012-0.042-0.022-0.085-0.030-0.129-0.437-2.423-0.65-4.882-0.635-7.344-0.012-2.444 0.201-4.884 0.635-7.289 0.005-0.029 0.012-0.058 0.019-0.087 0.215-0.86 0.654-1.649 1.272-2.285s1.392-1.099 2.246-1.341l0.019-0.005c0.712-0.19 1.834-0.311 3.007-0.396 1.21-0.088 2.593-0.146 3.892-0.185 1.301-0.039 2.528-0.058 3.429-0.068 0.451-0.005 0.821-0.007 1.079-0.008 0.129-0.001 0.23-0.001 0.298-0.001h0.106zM12.33 10.821c0.41-0.239 0.917-0.241 1.329-0.007l7.667 4.36c0.417 0.237 0.674 0.68 0.674 1.159s-0.257 0.922-0.674 1.159l-7.667 4.36c-0.413 0.235-0.919 0.232-1.329-0.006s-0.663-0.678-0.663-1.153v-8.72c0-0.475 0.252-0.914 0.663-1.153zM14.333 14.265v4.136l3.636-2.068-3.636-2.068z"></path>
</svg>
